<svg xmlns="http://www.w3.org/2000/svg" width="77" height="76" viewBox="0 0 77 76" fill="none">
  <path d="M67.5522 30.5247C66.433 29.355 65.2752 28.1497 64.8387 27.0898C64.435 26.1191 64.4112 24.51 64.3875 22.9514C64.343 20.0539 64.2955 16.7705 62.0125 14.4875C59.7295 12.2045 56.4461 12.157 53.5486 12.1125C51.99 12.0887 50.3809 12.065 49.4102 11.6612C48.3533 11.2248 47.145 10.067 45.9753 8.94781C43.9269 6.97953 41.5994 4.75 38.5 4.75C35.4006 4.75 33.0761 6.97953 31.0247 8.94781C29.855 10.067 28.6497 11.2248 27.5898 11.6612C26.625 12.065 25.01 12.0887 23.4514 12.1125C20.5539 12.157 17.2705 12.2045 14.9875 14.4875C12.7045 16.7705 12.6719 20.0539 12.6125 22.9514C12.5887 24.51 12.565 26.1191 12.1612 27.0898C11.7248 28.1467 10.567 29.355 9.44781 30.5247C7.47953 32.5731 5.25 34.9006 5.25 38C5.25 41.0994 7.47953 43.4239 9.44781 45.4753C10.567 46.645 11.7248 47.8503 12.1612 48.9102C12.565 49.8809 12.5887 51.49 12.6125 53.0486C12.657 55.9461 12.7045 59.2295 14.9875 61.5125C17.2705 63.7955 20.5539 63.843 23.4514 63.8875C25.01 63.9112 26.6191 63.935 27.5898 64.3387C28.6467 64.7752 29.855 65.933 31.0247 67.0522C33.0731 69.0205 35.4006 71.25 38.5 71.25C41.5994 71.25 43.9239 69.0205 45.9753 67.0522C47.145 65.933 48.3503 64.7752 49.4102 64.3387C50.3809 63.935 51.99 63.9112 53.5486 63.8875C56.4461 63.843 59.7295 63.7955 62.0125 61.5125C64.2955 59.2295 64.343 55.9461 64.3875 53.0486C64.4112 51.49 64.435 49.8809 64.8387 48.9102C65.2752 47.8533 66.433 46.645 67.5522 45.4753C69.5205 43.4269 71.75 41.0994 71.75 38C71.75 34.9006 69.5205 32.5761 67.5522 30.5247ZM52.0553 32.5553L35.4303 49.1803C35.2097 49.4011 34.9478 49.5763 34.6595 49.6958C34.3712 49.8154 34.0621 49.8769 33.75 49.8769C33.4379 49.8769 33.1288 49.8154 32.8405 49.6958C32.5522 49.5763 32.2903 49.4011 32.0697 49.1803L24.9447 42.0553C24.499 41.6097 24.2487 41.0052 24.2487 40.375C24.2487 39.7448 24.499 39.1403 24.9447 38.6947C25.3903 38.249 25.9948 37.9987 26.625 37.9987C27.2552 37.9987 27.8597 38.249 28.3053 38.6947L33.75 44.1423L48.6947 29.1947C48.9153 28.974 49.1773 28.799 49.4656 28.6796C49.7539 28.5601 50.0629 28.4987 50.375 28.4987C50.6871 28.4987 50.9961 28.5601 51.2844 28.6796C51.5727 28.799 51.8347 28.974 52.0553 29.1947C52.276 29.4153 52.451 29.6773 52.5704 29.9656C52.6899 30.2539 52.7513 30.5629 52.7513 30.875C52.7513 31.1871 52.6899 31.4961 52.5704 31.7844C52.451 32.0727 52.276 32.3347 52.0553 32.5553Z" fill="url(#paint0_linear_756_613)"/>
  <defs>
    <linearGradient id="paint0_linear_756_613" x1="0.801056" y1="4.75" x2="77.7852" y2="85.6544" gradientUnits="userSpaceOnUse">
      <stop stop-color="#034694"/>
      <stop offset="0.25" stop-color="#7C51A1"/>
      <stop offset="0.5" stop-color="#EA5B30"/>
      <stop offset="0.75" stop-color="#FAA61A"/>
      <stop offset="1" stop-color="#FFF200"/>
    </linearGradient>
  </defs>
</svg>