<svg width="24" height="24" viewBox="0 0 24 24" fill="none" xmlns="http://www.w3.org/2000/svg">
<path d="M12.0084 5.37805C12.0505 4.79601 12.2427 4.23481 12.5663 3.74924C12.89 3.26366 13.334 2.8703 13.8551 2.60755C14.3761 2.34481 14.9564 2.22165 15.5393 2.25011C16.1221 2.27857 16.6876 2.45767 17.1806 2.76992C17.237 2.8068 17.2824 2.85818 17.312 2.91866C17.3417 2.97914 17.3545 3.04649 17.3491 3.11363C17.3437 3.18077 17.3204 3.24522 17.2815 3.30022C17.2426 3.35522 17.1896 3.39873 17.1281 3.42617C16.2711 3.81174 15.5437 4.43651 15.0331 5.22545C14.5226 6.01439 14.2507 6.93395 14.25 7.87367C14.25 7.98336 14.25 8.09305 14.2612 8.20086C14.2664 8.26901 14.2529 8.33727 14.2221 8.39827C14.1913 8.45927 14.1444 8.5107 14.0865 8.54699C14.0285 8.58328 13.9618 8.60305 13.8935 8.60417C13.8252 8.6053 13.7578 8.58773 13.6987 8.55336C13.1463 8.23733 12.6944 7.77152 12.3953 7.20967C12.0962 6.64782 11.9621 6.01285 12.0084 5.37805ZM22.5 15.0559C22.5013 15.4844 22.3826 15.9048 22.1573 16.2693C21.9319 16.6339 21.609 16.928 21.225 17.1184L21.1838 17.1371L17.5434 18.6877C17.5075 18.7036 17.4701 18.7161 17.4319 18.7252L11.4319 20.2252C11.3724 20.2405 11.3114 20.2484 11.25 20.2487H1.5C1.10218 20.2487 0.720644 20.0906 0.43934 19.8093C0.158035 19.528 0 19.1465 0 18.7487V14.9987C0 14.6009 0.158035 14.2193 0.43934 13.938C0.720644 13.6567 1.10218 13.4987 1.5 13.4987H4.18969L6.31031 11.3771C6.58838 11.0978 6.91904 10.8764 7.28319 10.7256C7.64733 10.5748 8.03775 10.4977 8.43188 10.4987H13.125C13.5212 10.4986 13.9122 10.5883 14.2688 10.7608C14.6254 10.9334 14.9383 11.1845 15.1841 11.4952C15.4298 11.8059 15.6021 12.1682 15.6879 12.5549C15.7738 12.9417 15.7709 13.3429 15.6797 13.7284L19.6022 12.8265C19.9437 12.7361 20.3013 12.7252 20.6477 12.7949C20.994 12.8645 21.3197 13.0128 21.5996 13.2282C21.8796 13.4435 22.1064 13.7204 22.2625 14.0372C22.4186 14.3541 22.4999 14.7026 22.5 15.0559ZM21 15.0559C20.9999 14.9319 20.9712 14.8095 20.9162 14.6984C20.8611 14.5873 20.7812 14.4903 20.6827 14.4151C20.5841 14.3398 20.4695 14.2883 20.3478 14.2645C20.2261 14.2406 20.1006 14.2452 19.9809 14.2777L19.9519 14.2852L13.6706 15.7299C13.6155 15.7422 13.5593 15.7485 13.5028 15.7487H10.5C10.3011 15.7487 10.1103 15.6697 9.96967 15.529C9.82902 15.3884 9.75 15.1976 9.75 14.9987C9.75 14.7998 9.82902 14.609 9.96967 14.4683C10.1103 14.3277 10.3011 14.2487 10.5 14.2487H13.125C13.4234 14.2487 13.7095 14.1301 13.9205 13.9192C14.1315 13.7082 14.25 13.422 14.25 13.1237C14.25 12.8253 14.1315 12.5392 13.9205 12.3282C13.7095 12.1172 13.4234 11.9987 13.125 11.9987H8.43188C8.23482 11.998 8.03961 12.0366 7.85758 12.1121C7.67555 12.1876 7.51035 12.2985 7.37156 12.4384L5.25 14.559V18.7487H11.1562L17.0091 17.2852L20.5716 15.7684C20.7012 15.7 20.8097 15.5975 20.8852 15.4719C20.9608 15.3463 21.0005 15.2024 21 15.0559ZM15.75 7.87367C15.75 8.54119 15.9479 9.19371 16.3188 9.74872C16.6896 10.3037 17.2167 10.7363 17.8334 10.9918C18.4501 11.2472 19.1287 11.314 19.7834 11.1838C20.4381 11.0536 21.0395 10.7322 21.5115 10.2602C21.9835 9.78816 22.3049 9.18679 22.4352 8.5321C22.5654 7.87742 22.4985 7.19882 22.2431 6.58212C21.9876 5.96542 21.5551 5.43831 21 5.06746C20.445 4.69661 19.7925 4.49867 19.125 4.49867C18.2299 4.49867 17.3715 4.85425 16.7385 5.48719C16.1056 6.12012 15.75 6.97857 15.75 7.87367Z" fill="white"/>
</svg>
