<?xml version="1.0" encoding="UTF-8"?>
<svg id="Camada_1" xmlns="http://www.w3.org/2000/svg" version="1.1" viewBox="0 0 1872.59 1872.59">
  <!-- Generator: Adobe Illustrator 29.7.1, SVG Export Plug-In . SVG Version: 2.1.1 Build 8)  -->
  <defs>
    <style>
      .st0 {
        fill: #fff;
      }
    </style>
  </defs>
  <path class="st0" d="M380.86,1155.99h-53.16c0-7.89,1.64-14.99,4.91-21.29,3.28-6.3,7.85-11.34,13.73-15.12,5.88-3.78,12.76-5.67,20.66-5.67,8.4,0,15.66,2.23,21.79,6.68,6.13,4.45,9.2,11.13,9.2,20.03,0,4.87-1.26,8.65-3.78,11.34-2.52,2.69-6.97,4.03-13.35,4.03ZM566.69,1614.56c-19.65,0-29.48,6.55-29.48,19.65,0,6.38,2.31,11.08,6.93,14.11,4.62,3.02,11.88,4.53,21.79,4.53,4.03,0,8.44-.21,13.23-.63,4.79-.42,8.52-.96,11.21-1.64v-34.52c-2.86-.33-6.64-.67-11.34-1.01-4.7-.33-8.82-.5-12.34-.5ZM258.46,1338.68c-6.13-4.45-13.4-6.68-21.79-6.68-7.9,0-14.78,1.89-20.66,5.67-5.88,3.78-10.46,8.82-13.73,15.12-3.28,6.3-4.91,13.4-4.91,21.29h53.16c6.38,0,10.83-1.34,13.35-4.03,2.52-2.69,3.78-6.46,3.78-11.34,0-8.9-3.07-15.58-9.2-20.03ZM1013.74,1595.91c1.93-2.68,2.9-5.88,2.9-9.57,0-6.88-2.52-12.34-7.56-16.38-5.04-4.03-11.25-6.05-18.64-6.05-9.74,0-17.55,3.4-23.43,10.2-5.88,6.8-8.82,15.41-8.82,25.82h45.1c5.04,0,8.52-1.34,10.46-4.03ZM754.64,1413.38c10.92,0,19.73-3.69,26.45-11.09,6.71-7.39,10.08-17.04,10.08-28.97s-3.36-21.58-10.08-28.97c-6.72-7.39-15.54-11.08-26.45-11.08s-19.74,3.7-26.45,11.08c-6.72,7.39-10.08,17.05-10.08,28.97s3.36,21.58,10.08,28.97c6.72,7.39,15.53,11.09,26.45,11.09ZM231.63,1614.56c-19.65,0-29.48,6.55-29.48,19.65,0,6.38,2.31,11.08,6.93,14.11,4.62,3.02,11.88,4.53,21.79,4.53,4.03,0,8.44-.21,13.23-.63,4.79-.42,8.52-.96,11.21-1.64v-34.52c-2.86-.33-6.64-.67-11.34-1.01-4.7-.33-8.82-.5-12.34-.5ZM552.59,1370.05c2.52-2.69,3.78-6.46,3.78-11.34,0-8.9-3.07-15.58-9.2-20.03-6.13-4.45-13.4-6.68-21.79-6.68-7.9,0-14.78,1.89-20.66,5.67-5.88,3.78-10.46,8.82-13.73,15.12s-4.91,13.4-4.91,21.29h53.16c6.38,0,10.83-1.34,13.35-4.03ZM1664.88,1377.03c70.27,27.5,139.64,54.23,207.71,80.03v415.52H0V0h831.77c-78.71,33.74-149.14,64.25-213.25,92.35-95.73,41.92-171.04,76.12-223.79,101.6-81.88,39.07-141.08,83.73-175.95,132.72-35.13,49.38-52.95,113.53-52.95,190.66,0,103.13,28.72,187.01,85.36,249.33l2.84,2.3c43.99,25.64,114.43,60.86,209.39,104.7,93.92,43.34,207,93.67,336.1,149.55,128.58,55.61,268.4,114.21,415.59,174.18,146.37,59.63,297.69,120.07,449.77,179.64ZM692.16,1373.32c0,11.42,2.73,21.71,8.19,30.86,5.46,9.16,12.93,16.38,22.42,21.67,9.49,5.29,20.19,7.94,32.12,7.94,8.23,0,15.2-1.17,20.91-3.53,9.4,4.2,14.11,11,14.11,20.41,0,7.72-3.11,13.73-9.32,18.01-6.22,4.28-15.03,6.42-26.45,6.42-17.8,0-33.34-4.62-46.61-13.86l-10.83,19.4c4.03,3.02,9.28,5.71,15.75,8.06,6.46,2.35,13.6,4.2,21.41,5.54,7.81,1.34,15.49,2.02,23.05,2.02,18.64,0,33.42-4.03,44.34-12.09,10.91-8.06,16.38-18.81,16.38-32.25,0-14.27-6.97-25.28-20.91-33,13.77-11.75,20.66-26.54,20.66-44.34,0-15.79-4.79-28.05-14.36-36.78h22.42c2.18-2.69,3.28-6.05,3.28-10.08,0-7.22-3.95-10.83-11.84-10.83h-39.05c-7.39-2.69-15.03-4.03-22.93-4.03-11.93,0-22.63,2.65-32.12,7.94-9.49,5.29-16.97,12.47-22.42,21.54-5.46,9.07-8.19,19.4-8.19,30.99ZM477.85,1163.8l-49.63,61.47h29.48l34.77-44.84,37.03,44.84h31.49l-53.16-63.74,46.86-55.68c-1.35-2.02-3.45-3.69-6.3-5.04-2.86-1.34-5.96-2.02-9.32-2.02-2.86,0-5.59.67-8.19,2.02-2.61,1.35-5.33,3.7-8.19,7.05l-29.22,36.53-37.29-43.33c-1.68-.67-3.36-1.22-5.04-1.64-1.68-.42-3.44-.63-5.29-.63-3.53,0-6.42,1.01-8.69,3.02-2.27,2.02-3.4,4.7-3.4,8.06,0,3.7,2.18,7.98,6.55,12.85l37.54,41.07ZM179.06,1225.27h111.61v-23.68h-84.4v-146.37c-4.03-2.02-8.4-3.02-13.1-3.02-4.2,0-7.6,1.09-10.2,3.27-2.61,2.19-3.9,5.38-3.9,9.57v160.23ZM290.08,1596.17c0-18.64-5.5-32.58-16.5-41.82-11-9.23-27.93-13.86-50.76-13.86-14.11,0-25.03,1.72-32.75,5.17-7.73,3.44-11.59,8.44-11.59,14.99,0,3.19.84,6.34,2.52,9.45,1.68,3.11,3.86,5.42,6.55,6.93,5.88-4.03,11.5-6.93,16.88-8.69,5.37-1.76,11.42-2.65,18.14-2.65,22,0,33,8.15,33,24.44v4.03c-2.02-.33-5.88-.67-11.59-1.01-5.71-.33-11.09-.5-16.12-.5-21.16,0-36.53,3.28-46.1,9.83s-14.36,17.13-14.36,31.74,4.87,25.03,14.61,31.74c9.74,6.72,25.53,10.08,47.36,10.08,4.87,0,10.46-.13,16.75-.38,6.3-.25,12.55-.63,18.77-1.13,6.21-.5,11.59-1.01,16.12-1.51s7.56-1.01,9.07-1.51v-75.33ZM292.6,1361.23c0-9.74-2.36-18.22-7.05-25.45-4.71-7.22-11.21-12.85-19.52-16.88-8.31-4.03-18.01-6.05-29.1-6.05-13.44,0-25.11,2.94-35.02,8.82-9.91,5.88-17.6,14.03-23.05,24.44-5.46,10.42-8.19,22.42-8.19,36.03s2.85,25.07,8.57,34.89c5.71,9.83,13.6,17.34,23.68,22.55,10.08,5.2,21.67,7.81,34.77,7.81,6.05,0,12.22-.5,18.52-1.51s12.01-2.35,17.13-4.03c5.12-1.68,9.02-3.44,11.71-5.29l-8.06-18.9c-3.7,2.18-9.03,4.03-16,5.54-6.97,1.51-13.65,2.27-20.03,2.27-12.26,0-22.09-2.85-29.48-8.57-7.39-5.71-11.84-13.86-13.35-24.44h58.95c23.68,0,35.52-10.41,35.52-31.24ZM309.56,1198.94c5.71,9.83,13.6,17.34,23.68,22.55s21.67,7.81,34.77,7.81c6.05,0,12.22-.5,18.52-1.51s12.01-2.35,17.13-4.03c5.12-1.68,9.02-3.44,11.72-5.29l-8.06-18.9c-3.7,2.19-9.03,4.03-16,5.54-6.97,1.51-13.65,2.27-20.03,2.27-12.26,0-22.09-2.85-29.48-8.57-7.39-5.71-11.84-13.86-13.35-24.44h58.95c23.68,0,35.52-10.41,35.52-31.24,0-9.74-2.36-18.22-7.05-25.45-4.71-7.22-11.21-12.85-19.52-16.88-8.31-4.03-18.01-6.05-29.1-6.05-13.44,0-25.11,2.94-35.02,8.82-9.91,5.88-17.6,14.03-23.05,24.44-5.46,10.42-8.19,22.42-8.19,36.03s2.85,25.07,8.57,34.89ZM353.06,1489.85c-5.21-2.02-10.83-3.02-16.88-3.02s-10.42,1.35-13.6,4.03c-3.19,2.69-4.79,6.39-4.79,11.08v170.56h35.27v-182.65ZM416.54,1489.85c-5.21-2.02-10.83-3.02-16.88-3.02s-10.42,1.35-13.6,4.03c-3.19,2.69-4.79,6.39-4.79,11.08v170.56h35.27v-182.65ZM434.69,1365.01c0-10.75-2.56-19.99-7.68-27.71-5.13-7.72-12.26-13.73-21.41-18.01-9.16-4.28-19.78-6.42-31.87-6.42-6.22,0-13.06.55-20.53,1.64-7.48,1.09-14.53,2.48-21.16,4.16-6.64,1.68-11.88,3.44-15.75,5.29v119.42h26.2v-102.79c3.36-1.68,7.81-3.06,13.35-4.16,5.54-1.09,11-1.64,16.38-1.64,24.19,0,36.28,12.51,36.28,37.54v71.05h26.2v-78.35ZM481.29,1547.04c-5.21-2.02-10.83-3.02-16.88-3.02s-10.42,1.35-13.6,4.03c-3.19,2.69-4.79,6.39-4.79,11.09v113.37h35.27v-125.46ZM483.3,1505.97c0-5.37-1.89-9.91-5.67-13.6-3.78-3.69-8.44-5.54-13.98-5.54s-10.2,1.85-13.98,5.54c-3.78,3.7-5.67,8.23-5.67,13.6s1.89,9.7,5.67,13.48c3.78,3.78,8.44,5.67,13.98,5.67s10.2-1.89,13.98-5.67c3.78-3.78,5.67-8.27,5.67-13.48ZM491.62,1439.58c10.08,5.2,21.67,7.81,34.77,7.81,6.05,0,12.22-.5,18.52-1.51,6.3-1.01,12.01-2.35,17.13-4.03,5.12-1.68,9.02-3.44,11.72-5.29l-8.06-18.9c-3.7,2.18-9.03,4.03-16,5.54-6.97,1.51-13.65,2.27-20.03,2.27-12.26,0-22.09-2.85-29.48-8.57-7.39-5.71-11.84-13.86-13.35-24.44h58.95c23.68,0,35.52-10.41,35.52-31.24,0-9.74-2.36-18.22-7.05-25.45-4.71-7.22-11.21-12.85-19.52-16.88-8.31-4.03-18.01-6.05-29.1-6.05-13.44,0-25.11,2.94-35.02,8.82-9.91,5.88-17.6,14.03-23.05,24.44-5.46,10.42-8.19,22.42-8.19,36.03s2.85,25.07,8.57,34.89c5.71,9.83,13.6,17.34,23.68,22.55ZM625.14,1596.17c0-18.64-5.5-32.58-16.5-41.82-11-9.23-27.93-13.86-50.76-13.86-14.11,0-25.03,1.72-32.75,5.17-7.73,3.44-11.59,8.44-11.59,14.99,0,3.19.84,6.34,2.52,9.45,1.68,3.11,3.86,5.42,6.55,6.93,5.88-4.03,11.5-6.93,16.88-8.69,5.37-1.76,11.42-2.65,18.14-2.65,22,0,33,8.15,33,24.44v4.03c-2.02-.33-5.88-.67-11.59-1.01-5.71-.33-11.09-.5-16.12-.5-21.16,0-36.53,3.28-46.1,9.83-9.57,6.55-14.36,17.13-14.36,31.74s4.87,25.03,14.61,31.74c9.74,6.72,25.53,10.08,47.36,10.08,4.87,0,10.46-.13,16.75-.38,6.3-.25,12.55-.63,18.77-1.13,6.21-.5,11.59-1.01,16.12-1.51s7.56-1.01,9.07-1.51v-75.33ZM643.41,1336.42c4.95-1.26,9.95-1.89,14.99-1.89s10.12.59,15.24,1.76c5.12,1.18,8.77,2.52,10.96,4.03,1.34-1.34,2.6-3.27,3.78-5.79,1.17-2.52,1.76-4.79,1.76-6.8,0-4.53-3.11-8.14-9.32-10.83-6.22-2.69-14.36-4.03-24.44-4.03-11.09,0-21.08,1.51-29.98,4.54-8.9,3.02-16.04,6.64-21.41,10.83v115.13h25.95v-101.78c3.36-2.18,7.51-3.9,12.47-5.16ZM777.05,1593.14c0-10.92-2.61-20.36-7.81-28.34-5.21-7.98-12.52-14.15-21.92-18.52-9.41-4.37-20.58-6.55-33.51-6.55-6.55,0-13.73.55-21.54,1.64-7.81,1.09-15.24,2.56-22.3,4.41-7.05,1.85-12.77,3.87-17.13,6.05v120.68h35.27v-98.76c2.52-1.34,6.13-2.48,10.83-3.4,4.7-.92,9.32-1.39,13.86-1.39,10.08,0,17.42,2.52,22.04,7.56,4.62,5.04,6.93,12.94,6.93,23.68v72.31h35.27v-79.36ZM916.62,1661.42l-15.12-23.43c-1.68,1.68-4.28,3.32-7.81,4.91-3.53,1.6-7.39,2.94-11.59,4.03-4.2,1.09-8.31,1.64-12.34,1.64-6.55,0-12.56-1.68-18.01-5.04-5.46-3.36-9.79-8.06-12.97-14.11-3.19-6.05-4.79-13.1-4.79-21.16,0-11.75,3.44-21.37,10.33-28.85,6.89-7.47,15.7-11.21,26.45-11.21,6.38,0,12.63,1.35,18.77,4.03,6.13,2.69,11.21,6.22,15.24,10.58,3.02-2.35,5.54-5.29,7.56-8.82,2.02-3.53,3.02-6.88,3.02-10.08,0-5.71-2.69-10.58-8.06-14.61-4.2-3.02-10.08-5.37-17.64-7.05-7.56-1.68-15.12-2.52-22.67-2.52-14.11,0-26.33,2.94-36.66,8.82-10.33,5.88-18.27,13.98-23.81,24.31-5.54,10.33-8.31,22.13-8.31,35.4s2.81,25.32,8.44,35.65c5.63,10.33,13.52,18.39,23.68,24.19,10.16,5.79,22.04,8.69,35.65,8.69,9.4,0,18.64-1.39,27.71-4.16,9.07-2.77,16.71-6.51,22.93-11.21ZM917.26,1432.15c4.79-9.15,9.66-18.81,14.61-28.97,4.95-10.16,9.74-20.28,14.36-30.36,4.62-10.08,8.69-19.48,12.22-28.22,3.53-8.73,6.21-16.12,8.06-22.17-1.18-1.51-3.02-2.81-5.54-3.91-2.52-1.09-5.29-1.64-8.31-1.64-3.36,0-6.3.84-8.82,2.52-2.52,1.68-4.7,4.7-6.55,9.07-3.36,8.57-7.14,17.72-11.34,27.46-4.2,9.74-8.28,19.06-12.22,27.96-3.95,8.9-7.43,16.46-10.46,22.67-2.69-4.7-5.84-10.37-9.45-17.01-3.61-6.63-7.39-13.6-11.34-20.91-3.95-7.31-7.68-14.36-11.21-21.16s-6.59-12.72-9.2-17.76c-2.61-5.04-4.33-8.57-5.16-10.58-1.35-.84-3.07-1.42-5.16-1.76-2.1-.33-3.99-.5-5.67-.5-4.2,0-7.43,1.09-9.7,3.27-2.27,2.19-3.4,5.21-3.4,9.07,0,1.68.29,3.53.88,5.54.59,2.02,1.72,4.62,3.4,7.81.84,1.68,2.81,5.21,5.92,10.58,3.11,5.38,6.76,11.71,10.96,19.02,4.2,7.31,8.57,14.82,13.1,22.55,4.53,7.73,8.82,14.95,12.85,21.67,4.03,6.72,7.31,12.09,9.83,16.12l-6.55,12.6c-5.04,9.74-10.04,16.75-14.99,21.04-4.96,4.28-10.54,6.42-16.75,6.42-3.02,0-6.26-.46-9.7-1.39-3.44-.93-6.26-2.14-8.44-3.65l-8.57,19.15c2.69,1.85,6.84,3.48,12.47,4.91,5.63,1.42,11.12,2.14,16.5,2.14,9.91,0,18.85-2.94,26.83-8.82,7.98-5.88,15.83-15.46,23.56-28.72,3.86-6.89,8.19-14.9,12.97-24.06ZM959.2,1623.37h50.39c13.77,0,23.93-2.9,30.48-8.69,6.55-5.79,9.83-14.23,9.83-25.32,0-10.24-2.48-19.06-7.43-26.45-4.96-7.39-11.84-13.1-20.66-17.13-8.82-4.03-19.02-6.05-30.61-6.05-13.77,0-25.78,2.9-36.03,8.69-10.25,5.79-18.18,13.9-23.81,24.31-5.63,10.42-8.44,22.76-8.44,37.03s2.94,25.7,8.82,35.77c5.88,10.08,14.07,17.8,24.56,23.18,10.5,5.37,22.71,8.06,36.66,8.06,6.21,0,12.72-.5,19.52-1.51,6.8-1.01,12.93-2.23,18.39-3.65,5.45-1.42,9.28-2.9,11.46-4.41l-9.57-24.94c-2.18,1.01-5.38,1.98-9.57,2.9-4.2.93-8.65,1.64-13.35,2.14-4.7.5-8.91.76-12.6.76-10.92,0-19.57-2.27-25.95-6.8-6.38-4.53-10.42-10.49-12.09-17.89ZM1109.6,1653.86c0-6.38-2.23-11.8-6.68-16.25-4.45-4.45-9.87-6.68-16.25-6.68s-11.8,2.23-16.25,6.68c-4.45,4.45-6.68,9.87-6.68,16.25s2.22,11.59,6.68,16.12c4.45,4.54,9.87,6.8,16.25,6.8s11.8-2.27,16.25-6.8c4.45-4.53,6.68-9.91,6.68-16.12ZM956.77,365.38l-213.85,84.99c-53.62,21.27-100.46,39.93-140.5,55.93,70.36,27.68,149.71,58.46,236.33,91.67,97.02,37.15,194.37,74.98,289.34,112.44,86.22,33.97,162.67,64.43,227.58,90.69V208.62c-52.57,20.38-111.54,43.37-176.88,69.04-72.17,28.31-146.17,57.56-222.02,87.72ZM1719.64,64.69v880.36c55.8,21.88,106.78,41.94,152.94,60.17V1.58c-49.78,19.94-101.01,41.07-152.94,63.11Z"/>
</svg>