<?xml version="1.0" encoding="UTF-8"?>
<svg id="Camada_1" xmlns="http://www.w3.org/2000/svg" version="1.1" viewBox="0 0 1872.59 3317.7">
  <!-- Generator: Adobe Illustrator 29.7.1, SVG Export Plug-In . SVG Version: 2.1.1 Build 8)  -->
  <defs>
    <style>
      .st0 {
        fill: #fff;
      }
    </style>
  </defs>
  <path class="st0" d="M245.65,3054.08c4.7.34,8.48.67,11.34,1.01v34.52c-2.69.67-6.42,1.22-11.21,1.64-4.79.42-9.2.63-13.23.63-9.91,0-17.17-1.51-21.79-4.53-4.62-3.02-6.93-7.72-6.93-14.11,0-13.1,9.83-19.65,29.48-19.65,3.53,0,7.64.17,12.34.5ZM395.89,2590.97c2.52-2.68,3.78-6.46,3.78-11.34,0-8.9-3.07-15.58-9.2-20.03-6.13-4.45-13.4-6.68-21.79-6.68-7.9,0-14.78,1.89-20.66,5.67-5.88,3.78-10.46,8.82-13.73,15.12-3.28,6.3-4.91,13.4-4.91,21.29h53.16c6.38,0,10.83-1.34,13.35-4.03ZM1015.42,3034.93c1.93-2.69,2.9-5.88,2.9-9.57,0-6.88-2.52-12.34-7.56-16.38-5.04-4.03-11.25-6.05-18.64-6.05-9.74,0-17.55,3.4-23.43,10.2-5.88,6.8-8.82,15.41-8.82,25.82h45.1c5.04,0,8.52-1.34,10.46-4.03ZM548.85,2777.7c-6.13-4.45-13.4-6.68-21.79-6.68-7.9,0-14.78,1.89-20.66,5.67-5.88,3.78-10.46,8.82-13.73,15.12-3.28,6.3-4.91,13.4-4.91,21.29h53.16c6.38,0,10.83-1.34,13.35-4.03,2.52-2.68,3.78-6.46,3.78-11.34,0-8.9-3.07-15.58-9.2-20.03ZM756.31,2852.4c10.92,0,19.73-3.69,26.45-11.08,6.71-7.39,10.08-17.04,10.08-28.97s-3.36-21.58-10.08-28.97c-6.72-7.39-15.54-11.08-26.45-11.08s-19.74,3.7-26.45,11.08c-6.72,7.39-10.08,17.05-10.08,28.97s3.36,21.58,10.08,28.97c6.72,7.39,15.53,11.08,26.45,11.08ZM568.37,3053.58c-19.65,0-29.48,6.55-29.48,19.65,0,6.38,2.31,11.08,6.93,14.11,4.62,3.02,11.88,4.53,21.79,4.53,4.03,0,8.44-.21,13.23-.63,4.79-.42,8.52-.96,11.21-1.64v-34.52c-2.86-.33-6.64-.67-11.34-1.01-4.7-.33-8.82-.5-12.34-.5ZM265.55,2809.07c2.52-2.68,3.78-6.46,3.78-11.34,0-8.9-3.07-15.58-9.2-20.03-6.13-4.45-13.4-6.68-21.79-6.68-7.9,0-14.78,1.89-20.66,5.67-5.88,3.78-10.46,8.82-13.73,15.12-3.28,6.3-4.91,13.4-4.91,21.29h53.16c6.38,0,10.83-1.34,13.35-4.03ZM1872.59,0v1033.25c-44.32,17.25-89.7,35-136.16,53.26-132.5,52.09-265.93,105.55-400.27,160.38-134.34,54.83-262.72,108.29-385.19,160.38-122.43,52.09-231.66,99.12-327.62,141.19-95.95,42.02-170.41,75.82-223.44,101.44-80.41,38.38-137.51,81.31-171.35,128.85-33.8,47.51-50.72,108.72-50.72,183.69,0,100.49,27.42,180.94,82.25,241.26,43.86,25.58,113.35,60.32,208.36,104.18,95.06,43.87,206.99,93.64,335.84,149.42,128.85,55.73,267.3,113.77,415.35,174.09,148.04,60.31,297.93,120.16,449.62,179.57,68.94,26.98,136.67,53.07,203.33,78.36v428.38H0V0h1872.59ZM291.75,3035.18c0-18.64-5.5-32.58-16.5-41.82-11-9.23-27.93-13.86-50.76-13.86-14.11,0-25.03,1.72-32.75,5.16-7.73,3.44-11.59,8.44-11.59,14.99,0,3.19.84,6.34,2.52,9.45,1.68,3.11,3.86,5.42,6.55,6.93,5.88-4.03,11.5-6.93,16.88-8.69,5.37-1.76,11.42-2.65,18.14-2.65,22,0,33,8.15,33,24.44v4.03c-2.02-.33-5.88-.67-11.59-1.01-5.71-.33-11.09-.5-16.12-.5-21.16,0-36.53,3.28-46.1,9.83s-14.36,17.13-14.36,31.74,4.87,25.03,14.61,31.74c9.74,6.72,25.53,10.08,47.36,10.08,4.87,0,10.46-.13,16.75-.38,6.3-.25,12.55-.63,18.77-1.13,6.21-.5,11.59-1.01,16.12-1.51s7.56-1.01,9.07-1.51v-75.33ZM354.73,2928.87c-5.21-2.02-10.83-3.02-16.88-3.02s-10.42,1.35-13.6,4.03c-3.19,2.69-4.79,6.38-4.79,11.08v170.56h35.27v-182.65ZM418.22,2928.87c-5.21-2.02-10.83-3.02-16.88-3.02s-10.42,1.35-13.6,4.03c-3.19,2.69-4.79,6.38-4.79,11.08v170.56h35.27v-182.65ZM482.96,2986.06c-5.21-2.02-10.83-3.02-16.88-3.02s-10.42,1.35-13.6,4.03c-3.19,2.69-4.79,6.38-4.79,11.08v113.37h35.27v-125.46ZM484.98,2944.99c0-5.37-1.89-9.91-5.67-13.6-3.78-3.69-8.44-5.54-13.98-5.54s-10.2,1.85-13.98,5.54c-3.78,3.7-5.67,8.23-5.67,13.6s1.89,9.7,5.67,13.48c3.78,3.78,8.44,5.67,13.98,5.67s10.2-1.89,13.98-5.67c3.78-3.78,5.67-8.27,5.67-13.48ZM626.82,3035.18c0-18.64-5.5-32.58-16.5-41.82-11-9.23-27.93-13.86-50.76-13.86-14.11,0-25.03,1.72-32.75,5.16-7.73,3.44-11.59,8.44-11.59,14.99,0,3.19.84,6.34,2.52,9.45,1.68,3.11,3.86,5.42,6.55,6.93,5.88-4.03,11.5-6.93,16.88-8.69,5.37-1.76,11.42-2.65,18.14-2.65,22,0,33,8.15,33,24.44v4.03c-2.02-.33-5.88-.67-11.59-1.01-5.71-.33-11.09-.5-16.12-.5-21.16,0-36.53,3.28-46.1,9.83s-14.36,17.13-14.36,31.74,4.87,25.03,14.61,31.74c9.74,6.72,25.53,10.08,47.36,10.08,4.87,0,10.46-.13,16.75-.38,6.3-.25,12.55-.63,18.77-1.13,6.21-.5,11.59-1.01,16.12-1.51s7.56-1.01,9.07-1.51v-75.33ZM778.73,3032.16c0-10.92-2.61-20.36-7.81-28.34-5.21-7.98-12.52-14.15-21.92-18.52-9.41-4.37-20.58-6.55-33.51-6.55-6.55,0-13.73.55-21.54,1.64-7.81,1.09-15.24,2.56-22.3,4.41-7.05,1.85-12.77,3.87-17.13,6.05v120.68h35.27v-98.76c2.52-1.34,6.13-2.48,10.83-3.4,4.7-.92,9.32-1.39,13.86-1.39,10.08,0,17.42,2.52,22.04,7.56,4.62,5.04,6.93,12.94,6.93,23.68v72.31h35.27v-79.36ZM918.3,3100.43l-15.12-23.43c-1.68,1.68-4.28,3.32-7.81,4.91-3.53,1.6-7.39,2.94-11.59,4.03-4.2,1.09-8.31,1.64-12.34,1.64-6.55,0-12.56-1.68-18.01-5.04-5.46-3.36-9.79-8.06-12.97-14.11-3.19-6.05-4.79-13.1-4.79-21.16,0-11.75,3.44-21.37,10.33-28.85,6.89-7.47,15.7-11.21,26.45-11.21,6.38,0,12.63,1.35,18.77,4.03,6.13,2.69,11.21,6.22,15.24,10.58,3.02-2.35,5.54-5.29,7.56-8.82,2.02-3.53,3.02-6.88,3.02-10.08,0-5.71-2.69-10.58-8.06-14.61-4.2-3.02-10.08-5.37-17.64-7.05-7.56-1.68-15.12-2.52-22.67-2.52-14.11,0-26.33,2.94-36.66,8.82-10.33,5.88-18.27,13.98-23.81,24.31-5.54,10.33-8.31,22.13-8.31,35.4s2.81,25.32,8.44,35.65c5.63,10.33,13.52,18.39,23.68,24.19,10.16,5.79,22.04,8.69,35.65,8.69,9.4,0,18.64-1.39,27.71-4.16,9.07-2.77,16.71-6.51,22.93-11.21ZM1065.43,3092.88c0,6.22,2.22,11.59,6.68,16.12,4.45,4.53,9.87,6.8,16.25,6.8s11.8-2.27,16.25-6.8c4.45-4.53,6.68-9.91,6.68-16.12s-2.23-11.8-6.68-16.25c-4.45-4.45-9.87-6.68-16.25-6.68s-11.8,2.23-16.25,6.68c-4.45,4.45-6.68,9.87-6.68,16.25ZM992.87,2978.75c-13.77,0-25.78,2.9-36.03,8.69-10.25,5.79-18.18,13.9-23.81,24.31-5.63,10.42-8.44,22.76-8.44,37.03s2.94,25.7,8.82,35.77c5.88,10.08,14.07,17.8,24.56,23.18,10.5,5.37,22.71,8.06,36.66,8.06,6.21,0,12.72-.5,19.52-1.51s12.93-2.23,18.39-3.65c5.45-1.43,9.28-2.9,11.46-4.41l-9.57-24.94c-2.18,1.01-5.38,1.98-9.57,2.9-4.2.93-8.65,1.64-13.35,2.14-4.7.5-8.91.76-12.6.76-10.92,0-19.57-2.27-25.95-6.8-6.38-4.54-10.42-10.49-12.09-17.89h50.39c13.77,0,23.93-2.9,30.48-8.69,6.55-5.79,9.83-14.23,9.83-25.32,0-10.24-2.48-19.06-7.43-26.45-4.96-7.39-11.84-13.1-20.66-17.13-8.82-4.03-19.02-6.05-30.61-6.05ZM834.66,2768.25c0,1.68.29,3.53.88,5.54.59,2.02,1.72,4.62,3.4,7.81.84,1.68,2.81,5.21,5.92,10.58,3.11,5.38,6.76,11.71,10.96,19.02,4.2,7.31,8.57,14.82,13.1,22.55,4.53,7.73,8.82,14.95,12.85,21.67,4.03,6.72,7.31,12.09,9.83,16.12l-6.55,12.6c-5.04,9.74-10.04,16.75-14.99,21.04-4.96,4.28-10.54,6.42-16.75,6.42-3.02,0-6.26-.46-9.7-1.39-3.44-.93-6.26-2.14-8.44-3.65l-8.57,19.15c2.69,1.85,6.84,3.48,12.47,4.91,5.63,1.42,11.12,2.14,16.5,2.14,9.91,0,18.85-2.94,26.83-8.82,7.98-5.88,15.83-15.45,23.56-28.72,3.86-6.89,8.19-14.9,12.97-24.06,4.79-9.15,9.66-18.81,14.61-28.97,4.95-10.16,9.74-20.28,14.36-30.36,4.62-10.08,8.69-19.48,12.22-28.22,3.53-8.73,6.21-16.12,8.06-22.17-1.18-1.51-3.02-2.81-5.54-3.9-2.52-1.09-5.29-1.64-8.31-1.64-3.36,0-6.3.84-8.82,2.52-2.52,1.68-4.7,4.7-6.55,9.07-3.36,8.57-7.14,17.72-11.34,27.46-4.2,9.74-8.28,19.06-12.22,27.96-3.95,8.9-7.43,16.46-10.46,22.67-2.69-4.7-5.84-10.37-9.45-17.01-3.61-6.63-7.39-13.6-11.34-20.91-3.95-7.31-7.68-14.36-11.21-21.16-3.53-6.8-6.59-12.72-9.2-17.76-2.61-5.04-4.33-8.57-5.16-10.58-1.35-.84-3.07-1.43-5.16-1.76-2.1-.33-3.99-.5-5.67-.5-4.2,0-7.43,1.09-9.7,3.28-2.27,2.18-3.4,5.21-3.4,9.07ZM693.83,2812.34c0,11.42,2.73,21.71,8.19,30.86,5.46,9.16,12.93,16.38,22.42,21.67,9.49,5.29,20.19,7.94,32.12,7.94,8.23,0,15.2-1.17,20.91-3.53,9.4,4.2,14.11,11,14.11,20.41,0,7.72-3.11,13.73-9.32,18.01-6.22,4.28-15.03,6.42-26.45,6.42-17.8,0-33.34-4.62-46.61-13.86l-10.83,19.4c4.03,3.02,9.28,5.71,15.75,8.06,6.46,2.35,13.6,4.2,21.41,5.54,7.81,1.34,15.49,2.02,23.05,2.02,18.64,0,33.42-4.03,44.34-12.09,10.91-8.06,16.38-18.81,16.38-32.25,0-14.27-6.97-25.28-20.91-33,13.77-11.75,20.66-26.54,20.66-44.34,0-15.79-4.79-28.05-14.36-36.78h22.42c2.18-2.68,3.28-6.05,3.28-10.08,0-7.22-3.95-10.83-11.84-10.83h-39.05c-7.39-2.68-15.03-4.03-22.93-4.03-11.93,0-22.63,2.65-32.12,7.94-9.49,5.29-16.97,12.47-22.42,21.54-5.46,9.07-8.19,19.4-8.19,30.99ZM606.66,2882.38h25.95v-101.78c3.36-2.18,7.51-3.91,12.47-5.17,4.95-1.26,9.95-1.89,14.99-1.89s10.12.59,15.24,1.76c5.12,1.18,8.77,2.52,10.96,4.03,1.34-1.34,2.6-3.28,3.78-5.79,1.17-2.52,1.76-4.79,1.76-6.8,0-4.54-3.11-8.14-9.32-10.83-6.22-2.68-14.36-4.03-24.44-4.03-11.09,0-21.08,1.51-29.98,4.53-8.9,3.02-16.04,6.64-21.41,10.83v115.13ZM556.41,2757.93c-8.31-4.03-18.01-6.05-29.1-6.05-13.44,0-25.11,2.94-35.02,8.82-9.91,5.88-17.6,14.03-23.05,24.44-5.46,10.42-8.19,22.42-8.19,36.03s2.85,25.07,8.57,34.89c5.71,9.83,13.6,17.34,23.68,22.55s21.67,7.81,34.77,7.81c6.05,0,12.22-.5,18.52-1.51s12.01-2.35,17.13-4.03c5.12-1.68,9.02-3.44,11.71-5.29l-8.06-18.89c-3.7,2.18-9.03,4.03-16,5.54-6.97,1.51-13.65,2.27-20.03,2.27-12.26,0-22.09-2.85-29.48-8.57-7.39-5.71-11.84-13.86-13.35-24.44h58.95c23.68,0,35.52-10.41,35.52-31.24,0-9.74-2.36-18.22-7.05-25.45-4.71-7.22-11.21-12.85-19.52-16.88ZM479.53,2602.82l-49.63,61.47h29.48l34.77-44.84,37.03,44.84h31.49l-53.16-63.74,46.86-55.68c-1.35-2.02-3.45-3.69-6.3-5.04-2.86-1.34-5.96-2.02-9.32-2.02-2.86,0-5.59.67-8.19,2.02-2.61,1.35-5.33,3.7-8.19,7.05l-29.22,36.53-37.29-43.33c-1.68-.67-3.36-1.22-5.04-1.64-1.68-.42-3.44-.63-5.29-.63-3.53,0-6.42,1.01-8.69,3.02s-3.4,4.7-3.4,8.06c0,3.7,2.18,7.98,6.55,12.85l37.54,41.07ZM428.68,2776.32c-5.13-7.72-12.26-13.73-21.41-18.01-9.16-4.28-19.78-6.42-31.87-6.42-6.22,0-13.06.55-20.53,1.64-7.48,1.09-14.53,2.48-21.16,4.16-6.64,1.68-11.88,3.44-15.75,5.29v119.42h26.2v-102.79c3.36-1.68,7.81-3.06,13.35-4.16,5.54-1.09,11-1.64,16.38-1.64,24.19,0,36.28,12.51,36.28,37.54v71.05h26.2v-78.35c0-10.75-2.56-19.99-7.68-27.71ZM302.67,2603.07c0,13.44,2.85,25.07,8.57,34.89,5.71,9.83,13.6,17.34,23.68,22.55,10.08,5.2,21.67,7.81,34.77,7.81,6.05,0,12.22-.5,18.52-1.51,6.3-1.01,12.01-2.35,17.13-4.03,5.12-1.68,9.02-3.44,11.71-5.29l-8.06-18.9c-3.7,2.18-9.03,4.03-16,5.54-6.97,1.51-13.65,2.27-20.03,2.27-12.26,0-22.09-2.85-29.48-8.57-7.39-5.71-11.84-13.86-13.35-24.44h58.95c23.68,0,35.52-10.41,35.52-31.24,0-9.74-2.36-18.22-7.05-25.44-4.71-7.22-11.21-12.85-19.52-16.88-8.31-4.03-18.01-6.05-29.1-6.05-13.44,0-25.11,2.94-35.02,8.82-9.91,5.88-17.6,14.03-23.05,24.44-5.46,10.42-8.19,22.42-8.19,36.03ZM180.74,2664.29h111.61v-23.68h-84.4v-146.37c-4.03-2.02-8.4-3.02-13.1-3.02-4.2,0-7.6,1.09-10.2,3.27-2.61,2.18-3.9,5.38-3.9,9.57v160.23ZM172.34,2821.16c0,13.44,2.85,25.07,8.57,34.89,5.71,9.83,13.6,17.34,23.68,22.55,10.08,5.2,21.67,7.81,34.77,7.81,6.05,0,12.22-.5,18.52-1.51,6.3-1.01,12.01-2.35,17.13-4.03,5.12-1.68,9.02-3.44,11.71-5.29l-8.06-18.89c-3.7,2.18-9.03,4.03-16,5.54-6.97,1.51-13.65,2.27-20.03,2.27-12.26,0-22.09-2.85-29.48-8.57-7.39-5.71-11.84-13.86-13.35-24.44h58.95c23.68,0,35.52-10.41,35.52-31.24,0-9.74-2.36-18.22-7.05-25.45-4.71-7.22-11.21-12.85-19.53-16.88-8.31-4.03-18.01-6.05-29.1-6.05-13.44,0-25.11,2.94-35.02,8.82-9.91,5.88-17.6,14.03-23.05,24.44-5.46,10.42-8.19,22.42-8.19,36.03ZM1707.63,2398.36c60.59,23.75,115.56,45.38,164.95,64.89v-1029.48c-53.33,21.31-108.31,44-164.95,68.09v896.5ZM952.33,1799.32c-75.82,30.16-147.11,58.47-213.84,84.99-66.7,26.47-122.9,48.88-168.61,67.17,78.61,31.06,166.81,65.33,264.56,102.81,97.8,37.44,194.23,74.92,289.24,112.4,95.05,37.44,176.4,69.91,244,97.32v-627.82c-56.63,21.93-121.06,47.03-193.28,75.4-72.18,28.31-146.2,57.57-222.07,87.73Z"/>
</svg>