<?xml version="1.0" encoding="UTF-8"?>
<svg id="Camada_1" xmlns="http://www.w3.org/2000/svg" version="1.1" xmlns:xlink="http://www.w3.org/1999/xlink" viewBox="0 0 1872.59 3317.7">
  <!-- Generator: Adobe Illustrator 29.7.1, SVG Export Plug-In . SVG Version: 2.1.1 Build 8)  -->
  <defs>
    <style>
      .st0 {
        fill: #fff;
      }

      .st1 {
        fill: url(#Gradiente_sem_nome_20);
      }
    </style>
    <linearGradient id="Gradiente_sem_nome_20" data-name="Gradiente sem nome 20" x1="394.82" y1="1481.79" x2="2137.76" y2="3098.83" gradientUnits="userSpaceOnUse">
      <stop offset="0" stop-color="#034694"/>
      <stop offset=".21" stop-color="#142a7b"/>
      <stop offset=".49" stop-color="#310055"/>
      <stop offset=".56" stop-color="#320664"/>
      <stop offset=".69" stop-color="#35178e"/>
      <stop offset=".87" stop-color="#3b33d1"/>
      <stop offset=".99" stop-color="#3f46ff"/>
    </linearGradient>
  </defs>
  <rect class="st0" width="1872.59" height="3317.7"/>
  <path class="st1" d="M1707.63,1501.86c56.64-24.09,111.62-46.77,164.95-68.09v-400.52c-44.32,17.25-89.7,35-136.16,53.26-132.5,52.09-265.93,105.55-400.27,160.38-134.34,54.83-262.72,108.29-385.19,160.38-122.43,52.09-231.66,99.12-327.62,141.19-95.95,42.02-170.41,75.82-223.44,101.44-80.41,38.38-137.51,81.31-171.35,128.85-33.8,47.51-50.72,108.72-50.72,183.69,0,100.49,27.42,180.94,82.25,241.26,43.86,25.58,113.35,60.32,208.36,104.18,95.06,43.87,206.99,93.64,335.84,149.42,128.85,55.73,267.3,113.77,415.35,174.09,148.04,60.32,297.93,120.16,449.62,179.57,68.94,26.98,136.67,53.07,203.33,78.36v-426.07c-49.39-19.52-104.36-41.14-164.95-64.89v-896.5ZM1367.68,2264.02c-67.59-27.41-148.94-59.88-244-97.32-95.01-37.48-191.44-74.96-289.24-112.4-97.75-37.48-185.95-71.75-264.56-102.81,45.71-18.29,101.91-40.69,168.61-67.17,66.74-26.52,138.02-54.83,213.84-84.99,75.86-30.16,149.89-59.41,222.07-87.73,72.22-28.36,136.65-53.46,193.28-75.4v627.82ZM180.74,2504.06c0-4.2,1.3-7.39,3.9-9.57,2.6-2.18,6-3.28,10.2-3.28,4.7,0,9.07,1.01,13.1,3.02v146.37h84.4v23.68h-111.61v-160.23ZM369.69,2668.32c-13.1,0-24.69-2.61-34.77-7.81-10.08-5.2-17.97-12.72-23.68-22.55-5.71-9.83-8.57-21.45-8.57-34.89s2.73-25.61,8.19-36.03c5.46-10.41,13.14-18.56,23.05-24.44,9.91-5.88,21.58-8.82,35.02-8.82,11.09,0,20.78,2.02,29.1,6.05,8.31,4.03,14.82,9.66,19.52,16.88,4.7,7.22,7.05,15.71,7.05,25.45,0,20.83-11.84,31.24-35.52,31.24h-58.95c1.51,10.58,5.96,18.73,13.35,24.44,7.39,5.71,17.21,8.57,29.48,8.57,6.38,0,13.06-.76,20.03-2.27,6.97-1.51,12.3-3.36,16-5.54l8.06,18.89c-2.69,1.85-6.6,3.61-11.71,5.29-5.13,1.68-10.83,3.02-17.13,4.03s-12.47,1.51-18.52,1.51ZM399.67,2579.64c0-8.9-3.07-15.58-9.2-20.03-6.13-4.45-13.4-6.68-21.79-6.68-7.9,0-14.78,1.89-20.66,5.67-5.88,3.78-10.46,8.82-13.73,15.12-3.28,6.3-4.91,13.4-4.91,21.29h53.16c6.38,0,10.83-1.34,13.35-4.03,2.52-2.68,3.78-6.46,3.78-11.34ZM562.67,2664.29h-31.49l-37.03-44.84-34.77,44.84h-29.48l49.63-61.47-37.54-41.07c-4.37-4.87-6.55-9.15-6.55-12.85,0-3.36,1.13-6.05,3.4-8.06,2.27-2.02,5.16-3.02,8.69-3.02,1.85,0,3.61.21,5.29.63,1.68.42,3.36.97,5.04,1.64l37.29,43.33,29.22-36.53c2.85-3.36,5.58-5.71,8.19-7.05,2.6-1.34,5.33-2.02,8.19-2.02,3.36,0,6.46.67,9.32,2.02,2.85,1.35,4.95,3.02,6.3,5.04l-46.86,55.68,53.16,63.74ZM239.35,2886.41c-13.1,0-24.69-2.61-34.77-7.81-10.08-5.2-17.97-12.72-23.68-22.55-5.71-9.83-8.57-21.45-8.57-34.89s2.73-25.61,8.19-36.03c5.46-10.41,13.14-18.56,23.05-24.44,9.91-5.88,21.58-8.82,35.02-8.82,11.09,0,20.78,2.02,29.1,6.05,8.31,4.03,14.82,9.66,19.52,16.88,4.7,7.22,7.05,15.71,7.05,25.45,0,20.83-11.84,31.24-35.52,31.24h-58.95c1.51,10.58,5.96,18.73,13.35,24.44,7.39,5.71,17.21,8.57,29.48,8.57,6.38,0,13.06-.76,20.03-2.27,6.97-1.51,12.3-3.36,16-5.54l8.06,18.89c-2.69,1.85-6.6,3.61-11.71,5.29-5.13,1.68-10.83,3.02-17.13,4.03s-12.47,1.51-18.52,1.51ZM269.33,2797.73c0-8.9-3.07-15.58-9.2-20.03-6.13-4.45-13.4-6.68-21.79-6.68-7.9,0-14.78,1.89-20.66,5.67-5.88,3.78-10.46,8.82-13.73,15.12-3.28,6.3-4.91,13.4-4.91,21.29h53.16c6.38,0,10.83-1.34,13.35-4.03,2.52-2.68,3.78-6.46,3.78-11.34ZM317.95,2762.96c3.86-1.85,9.11-3.61,15.75-5.29,6.63-1.68,13.69-3.06,21.16-4.16,7.47-1.09,14.32-1.64,20.53-1.64,12.09,0,22.71,2.14,31.87,6.42,9.15,4.28,16.29,10.29,21.41,18.01,5.12,7.73,7.68,16.97,7.68,27.71v78.35h-26.2v-71.05c0-25.02-12.09-37.54-36.28-37.54-5.38,0-10.83.55-16.38,1.64-5.54,1.09-9.99,2.48-13.35,4.16v102.79h-26.2v-119.42ZM528.06,2886.41c-13.1,0-24.69-2.61-34.77-7.81-10.08-5.2-17.97-12.72-23.68-22.55-5.71-9.83-8.57-21.45-8.57-34.89s2.73-25.61,8.19-36.03c5.46-10.41,13.14-18.56,23.05-24.44,9.91-5.88,21.58-8.82,35.02-8.82,11.09,0,20.78,2.02,29.1,6.05,8.31,4.03,14.82,9.66,19.52,16.88,4.7,7.22,7.05,15.71,7.05,25.45,0,20.83-11.84,31.24-35.52,31.24h-58.95c1.51,10.58,5.96,18.73,13.35,24.44,7.39,5.71,17.21,8.57,29.48,8.57,6.38,0,13.06-.76,20.03-2.27,6.97-1.51,12.3-3.36,16-5.54l8.06,18.89c-2.69,1.85-6.6,3.61-11.71,5.29-5.13,1.68-10.83,3.02-17.13,4.03s-12.47,1.51-18.52,1.51ZM558.04,2797.73c0-8.9-3.07-15.58-9.2-20.03-6.13-4.45-13.4-6.68-21.79-6.68-7.9,0-14.78,1.89-20.66,5.67-5.88,3.78-10.46,8.82-13.73,15.12-3.28,6.3-4.91,13.4-4.91,21.29h53.16c6.38,0,10.83-1.34,13.35-4.03,2.52-2.68,3.78-6.46,3.78-11.34ZM606.66,2767.25c5.37-4.2,12.51-7.81,21.41-10.83,8.9-3.02,18.9-4.53,29.98-4.53,10.08,0,18.22,1.35,24.44,4.03,6.21,2.69,9.32,6.3,9.32,10.83,0,2.02-.59,4.28-1.76,6.8-1.18,2.52-2.44,4.45-3.78,5.79-2.18-1.51-5.84-2.85-10.96-4.03-5.13-1.17-10.2-1.76-15.24-1.76s-10.04.63-14.99,1.89c-4.96,1.26-9.11,2.98-12.47,5.16v101.78h-25.95v-115.13ZM758.58,2935.29c-7.56,0-15.24-.67-23.05-2.02-7.81-1.35-14.95-3.19-21.41-5.54-6.47-2.35-11.71-5.04-15.75-8.06l10.83-19.4c13.27,9.23,28.8,13.86,46.61,13.86,11.42,0,20.24-2.14,26.45-6.42,6.21-4.28,9.32-10.29,9.32-18.01,0-9.4-4.7-16.21-14.11-20.41-5.71,2.35-12.68,3.53-20.91,3.53-11.93,0-22.63-2.65-32.12-7.94-9.49-5.29-16.97-12.51-22.42-21.67-5.46-9.15-8.19-19.44-8.19-30.86s2.73-21.92,8.19-30.99c5.46-9.07,12.93-16.25,22.42-21.54,9.49-5.29,20.19-7.94,32.12-7.94,7.89,0,15.53,1.35,22.93,4.03h39.05c7.89,0,11.84,3.61,11.84,10.83,0,4.03-1.1,7.39-3.28,10.08h-22.42c9.57,8.73,14.36,21,14.36,36.78,0,17.8-6.89,32.59-20.66,44.34,13.94,7.73,20.91,18.73,20.91,33,0,13.44-5.46,24.19-16.38,32.25-10.92,8.06-25.7,12.09-44.34,12.09ZM792.84,2812.34c0-11.92-3.36-21.58-10.08-28.97-6.72-7.39-15.54-11.08-26.45-11.08s-19.74,3.7-26.45,11.08c-6.72,7.39-10.08,17.05-10.08,28.97s3.36,21.58,10.08,28.97c6.72,7.39,15.53,11.09,26.45,11.09s19.73-3.69,26.45-11.09c6.71-7.39,10.08-17.04,10.08-28.97ZM933.55,2842.2c-4.96,10.16-9.83,19.82-14.61,28.97-4.79,9.16-9.11,17.17-12.97,24.06-7.73,13.27-15.58,22.84-23.56,28.72-7.98,5.88-16.92,8.82-26.83,8.82-5.38,0-10.88-.72-16.5-2.14-5.63-1.43-9.78-3.07-12.47-4.91l8.57-19.15c2.18,1.51,5,2.73,8.44,3.65,3.44.92,6.68,1.39,9.7,1.39,6.21,0,11.8-2.14,16.75-6.42,4.95-4.28,9.95-11.3,14.99-21.04l6.55-12.6c-2.52-4.03-5.79-9.4-9.83-16.12-4.03-6.72-8.31-13.94-12.85-21.67-4.53-7.72-8.9-15.24-13.1-22.55-4.2-7.31-7.85-13.64-10.96-19.02-3.11-5.37-5.08-8.9-5.92-10.58-1.68-3.19-2.81-5.79-3.4-7.81-.59-2.02-.88-3.86-.88-5.54,0-3.86,1.13-6.88,3.4-9.07,2.27-2.18,5.5-3.28,9.7-3.28,1.68,0,3.57.17,5.67.5,2.1.34,3.82.93,5.16,1.76.84,2.02,2.56,5.54,5.16,10.58,2.6,5.04,5.67,10.96,9.2,17.76,3.53,6.8,7.26,13.86,11.21,21.16,3.94,7.31,7.72,14.28,11.34,20.91,3.61,6.64,6.76,12.31,9.45,17.01,3.02-6.21,6.51-13.77,10.46-22.67,3.94-8.9,8.02-18.22,12.22-27.96,4.2-9.74,7.97-18.89,11.34-27.46,1.85-4.37,4.03-7.39,6.55-9.07,2.52-1.68,5.45-2.52,8.82-2.52,3.02,0,5.79.55,8.31,1.64,2.52,1.09,4.36,2.39,5.54,3.9-1.85,6.05-4.53,13.44-8.06,22.17-3.53,8.74-7.6,18.14-12.22,28.22-4.62,10.08-9.41,20.2-14.36,30.36ZM291.75,3110.51c-1.51.5-4.53,1.01-9.07,1.51-4.53.5-9.91,1.01-16.12,1.51-6.22.5-12.47.88-18.77,1.13-6.3.25-11.88.38-16.75.38-21.84,0-37.62-3.36-47.36-10.08-9.74-6.72-14.61-17.3-14.61-31.74s4.79-25.19,14.36-31.74,24.94-9.83,46.1-9.83c5.04,0,10.41.17,16.12.5,5.71.34,9.57.67,11.59,1.01v-4.03c0-16.29-11-24.44-33-24.44-6.72,0-12.77.88-18.14,2.65-5.38,1.76-11,4.66-16.88,8.69-2.69-1.51-4.87-3.82-6.55-6.93-1.68-3.11-2.52-6.26-2.52-9.45,0-6.55,3.86-11.55,11.59-14.99,7.72-3.44,18.64-5.16,32.75-5.16,22.84,0,39.76,4.62,50.76,13.86,11,9.24,16.5,23.18,16.5,41.82v75.33ZM245.78,3091.24c4.79-.42,8.52-.96,11.21-1.64v-34.52c-2.86-.33-6.64-.67-11.34-1.01-4.7-.33-8.82-.5-12.34-.5-19.65,0-29.48,6.55-29.48,19.65,0,6.38,2.31,11.09,6.93,14.11,4.62,3.02,11.88,4.53,21.79,4.53,4.03,0,8.44-.21,13.23-.63ZM354.73,3111.52h-35.27v-170.56c0-4.7,1.59-8.4,4.79-11.08,3.19-2.68,7.72-4.03,13.6-4.03s11.67,1.01,16.88,3.02v182.65ZM418.22,3111.52h-35.27v-170.56c0-4.7,1.59-8.4,4.79-11.08,3.19-2.68,7.72-4.03,13.6-4.03s11.67,1.01,16.88,3.02v182.65ZM451.35,2958.47c-3.78-3.78-5.67-8.27-5.67-13.48s1.89-9.91,5.67-13.6c3.78-3.69,8.44-5.54,13.98-5.54s10.2,1.85,13.98,5.54c3.78,3.7,5.67,8.23,5.67,13.6s-1.89,9.7-5.67,13.48c-3.78,3.78-8.44,5.67-13.98,5.67s-10.2-1.89-13.98-5.67ZM482.96,3111.52h-35.27v-113.37c0-4.7,1.59-8.4,4.79-11.09,3.19-2.68,7.72-4.03,13.6-4.03s11.67,1.01,16.88,3.02v125.46ZM626.82,3110.51c-1.51.5-4.53,1.01-9.07,1.51-4.53.5-9.91,1.01-16.12,1.51-6.22.5-12.47.88-18.77,1.13-6.3.25-11.88.38-16.75.38-21.84,0-37.62-3.36-47.36-10.08-9.74-6.72-14.61-17.3-14.61-31.74s4.79-25.19,14.36-31.74,24.94-9.83,46.1-9.83c5.04,0,10.41.17,16.12.5,5.71.34,9.57.67,11.59,1.01v-4.03c0-16.29-11-24.44-33-24.44-6.72,0-12.77.88-18.14,2.65-5.38,1.76-11,4.66-16.88,8.69-2.69-1.51-4.87-3.82-6.55-6.93-1.68-3.11-2.52-6.26-2.52-9.45,0-6.55,3.86-11.55,11.59-14.99,7.72-3.44,18.64-5.16,32.75-5.16,22.84,0,39.76,4.62,50.76,13.86,11,9.24,16.5,23.18,16.5,41.82v75.33ZM580.84,3091.24c4.79-.42,8.52-.96,11.21-1.64v-34.52c-2.86-.33-6.64-.67-11.34-1.01-4.7-.33-8.82-.5-12.34-.5-19.65,0-29.48,6.55-29.48,19.65,0,6.38,2.31,11.09,6.93,14.11,4.62,3.02,11.88,4.53,21.79,4.53,4.03,0,8.44-.21,13.23-.63ZM654.53,2990.84c4.37-2.18,10.08-4.2,17.13-6.05,7.05-1.85,14.49-3.31,22.3-4.41,7.81-1.09,14.99-1.64,21.54-1.64,12.93,0,24.1,2.18,33.51,6.55,9.4,4.37,16.71,10.54,21.92,18.52,5.2,7.98,7.81,17.43,7.81,28.34v79.36h-35.27v-72.31c0-10.75-2.31-18.64-6.93-23.68-4.62-5.04-11.97-7.56-22.04-7.56-4.53,0-9.16.46-13.86,1.39-4.7.93-8.31,2.06-10.83,3.4v98.76h-35.27v-120.68ZM808.33,3082.93c-5.63-10.33-8.44-22.21-8.44-35.65s2.77-25.07,8.31-35.4c5.54-10.33,13.48-18.43,23.81-24.31,10.33-5.88,22.55-8.82,36.66-8.82,7.56,0,15.12.84,22.67,2.52,7.56,1.68,13.44,4.03,17.64,7.05,5.37,4.03,8.06,8.9,8.06,14.61,0,3.19-1.01,6.55-3.02,10.08-2.02,3.53-4.53,6.47-7.56,8.82-4.03-4.37-9.11-7.89-15.24-10.58-6.13-2.68-12.39-4.03-18.77-4.03-10.75,0-19.57,3.74-26.45,11.21-6.89,7.48-10.33,17.09-10.33,28.85,0,8.06,1.59,15.12,4.79,21.16,3.19,6.05,7.51,10.75,12.97,14.11,5.46,3.36,11.46,5.04,18.01,5.04,4.03,0,8.14-.54,12.34-1.64,4.2-1.09,8.06-2.43,11.59-4.03,3.53-1.59,6.13-3.23,7.81-4.91l15.12,23.43c-6.22,4.7-13.86,8.44-22.93,11.21s-18.31,4.16-27.71,4.16c-13.6,0-25.49-2.9-35.65-8.69-10.16-5.79-18.06-13.86-23.68-24.19ZM994.64,3115.8c-13.94,0-26.16-2.69-36.66-8.06-10.5-5.37-18.69-13.1-24.56-23.18-5.88-10.08-8.82-22-8.82-35.77s2.81-26.62,8.44-37.03c5.63-10.41,13.56-18.52,23.81-24.31,10.24-5.79,22.25-8.69,36.03-8.69,11.59,0,21.79,2.02,30.61,6.05,8.82,4.03,15.7,9.74,20.66,17.13,4.95,7.39,7.43,16.21,7.43,26.45,0,11.09-3.28,19.52-9.83,25.32-6.55,5.79-16.72,8.69-30.48,8.69h-50.39c1.68,7.39,5.71,13.35,12.09,17.89,6.38,4.53,15.03,6.8,25.95,6.8,3.69,0,7.89-.25,12.6-.76,4.7-.5,9.15-1.22,13.35-2.14,4.2-.92,7.39-1.89,9.57-2.9l9.57,24.94c-2.19,1.51-6.01,2.98-11.46,4.41-5.46,1.43-11.59,2.65-18.39,3.65s-13.31,1.51-19.52,1.51ZM968.69,3013.14c-5.88,6.8-8.82,15.41-8.82,25.82h45.1c5.04,0,8.52-1.34,10.46-4.03,1.93-2.68,2.9-5.88,2.9-9.57,0-6.88-2.52-12.34-7.56-16.38-5.04-4.03-11.25-6.05-18.64-6.05-9.74,0-17.55,3.4-23.43,10.2ZM1072.1,3109c-4.45-4.53-6.68-9.91-6.68-16.12s2.22-11.8,6.68-16.25c4.45-4.45,9.87-6.68,16.25-6.68s11.8,2.23,16.25,6.68c4.45,4.45,6.68,9.87,6.68,16.25s-2.23,11.59-6.68,16.12c-4.45,4.53-9.87,6.8-16.25,6.8s-11.8-2.27-16.25-6.8Z"/>
</svg>