<svg width="182" height="59" viewBox="0 0 182 59" fill="none" xmlns="http://www.w3.org/2000/svg">
<path d="M46.9385 7.9209C48.3834 7.9209 49.6512 8.12204 50.7412 8.52441C51.8566 8.90166 52.7815 9.43034 53.5166 10.1094C54.2771 10.7884 54.8483 11.58 55.2285 12.4854C55.6087 13.3907 55.7988 14.3466 55.7988 15.3525C55.7988 16.1321 55.6841 16.8362 55.4561 17.4648C55.2533 18.0935 54.9112 18.6343 54.4297 19.0869C53.9734 19.5144 53.3522 19.854 52.5664 20.1055C51.806 20.3318 50.8554 20.4453 49.7148 20.4453H42.1094C42.3375 21.4763 42.9461 22.3566 43.9346 23.0859C44.9232 23.7901 46.2292 24.1426 47.8516 24.1426C49.4738 24.1426 50.7163 24.0291 51.5781 23.8027C52.4651 23.5513 53.0101 23.375 53.2129 23.2744L54.6582 27.0098C54.6075 27.0601 54.3918 27.1607 54.0117 27.3115C53.6315 27.4624 53.1112 27.6257 52.4521 27.8018C51.8185 27.9526 51.058 28.0911 50.1709 28.2168C49.2837 28.3677 48.2951 28.4434 47.2051 28.4434C45.6842 28.4434 44.2771 28.2422 42.9844 27.8398C41.7169 27.4375 40.601 26.8211 39.6377 25.9912C38.6998 25.1613 37.9649 24.1168 37.4326 22.8594C36.9004 21.602 36.6348 20.1182 36.6348 18.4082C36.6348 16.8238 36.8748 15.39 37.3564 14.1074C37.8634 12.8249 38.5611 11.7315 39.4482 10.8262C40.3607 9.89575 41.4505 9.17876 42.7178 8.67578C43.9852 8.17283 45.3923 7.92094 46.9385 7.9209ZM136.082 0C136.665 2.1805e-05 137.197 0.062763 137.679 0.188477C138.185 0.314144 138.502 0.402809 138.629 0.453125V27.8027C138.477 27.8279 138.173 27.8658 137.717 27.916C137.286 27.9915 136.741 28.0542 136.082 28.1045C135.423 28.1548 134.674 28.2056 133.838 28.2559C133.002 28.3061 132.127 28.3311 131.215 28.3311C127.058 28.3311 123.939 27.3882 121.86 25.502C119.782 23.5906 118.743 20.9491 118.743 17.5791C118.743 16.0201 118.983 14.6496 119.465 13.4678C119.946 12.2858 120.593 11.2921 121.404 10.4873C122.241 9.68262 123.191 9.07915 124.256 8.67676C125.346 8.24922 126.5 8.03516 127.717 8.03516C128.579 8.03519 129.352 8.14869 130.036 8.375C130.72 8.57617 131.291 8.82718 131.747 9.12891C132.229 9.40555 132.596 9.67038 132.85 9.92188C133.103 10.1733 133.255 10.3367 133.306 10.4121V2.26367C133.306 1.40859 133.559 0.817178 134.066 0.490234C134.573 0.163312 135.246 0 136.082 0ZM84.4834 8.03418C86.0296 8.0342 87.4367 8.1726 88.7041 8.44922C89.9966 8.70072 91.0993 9.1529 92.0117 9.80664C92.9496 10.4353 93.6717 11.2908 94.1787 12.3721C94.6857 13.4283 94.9395 14.7615 94.9395 16.3711V27.6504C94.8632 27.6755 94.5847 27.7264 94.1035 27.8018C93.6219 27.8772 92.9751 27.9519 92.1641 28.0273C91.3782 28.1028 90.4396 28.1665 89.3496 28.2168C88.2597 28.2922 87.068 28.3291 85.7754 28.3291C83.8997 28.3291 82.3534 28.1658 81.1367 27.8389C79.9455 27.5371 78.9949 27.1098 78.2852 26.5566C77.5754 26.0034 77.0806 25.3621 76.8018 24.6328C76.5483 23.8784 76.4219 23.0608 76.4219 22.1807C76.4219 21.0994 76.5866 20.1563 76.916 19.3516C77.2456 18.5468 77.7785 17.8926 78.5137 17.3896C79.2488 16.8616 80.1865 16.4712 81.3271 16.2197C82.4932 15.9683 83.9002 15.8428 85.5479 15.8428C86.6885 15.8428 87.639 15.8806 88.3994 15.9561C89.1599 16.0064 89.6037 16.0442 89.7305 16.0693V15.4658C89.7305 14.2838 89.3249 13.3778 88.5137 12.749C87.7025 12.1203 86.4474 11.8066 84.749 11.8066C83.9886 11.8067 83.3164 11.8813 82.7334 12.0322C82.1505 12.158 81.6437 12.3223 81.2129 12.5234C80.8074 12.6994 80.4526 12.8877 80.1484 13.0889C79.8696 13.2649 79.6413 13.4033 79.4639 13.5039C79.109 13.3027 78.7925 12.9881 78.5137 12.5605C78.2348 12.1079 78.0947 11.605 78.0947 11.0518C78.0947 10.4986 78.2722 10.0334 78.627 9.65625C78.9818 9.25386 79.4511 8.93924 80.0342 8.71289C80.6426 8.4614 81.3274 8.28517 82.0879 8.18457C82.8736 8.08401 83.6724 8.03418 84.4834 8.03418ZM171.543 8.03418C173.089 8.03418 174.496 8.17257 175.764 8.44922C177.056 8.70071 178.16 9.15276 179.072 9.80664C180.01 10.4354 180.732 11.2907 181.239 12.3721C181.746 13.4283 182 14.7615 182 16.3711V27.6504C181.924 27.6755 181.645 27.7263 181.163 27.8018C180.681 27.8772 180.035 27.9519 179.224 28.0273C178.438 28.1028 177.5 28.1665 176.41 28.2168C175.32 28.2922 174.129 28.3291 172.836 28.3291C170.96 28.3291 169.414 28.1658 168.197 27.8389C167.006 27.5371 166.055 27.1099 165.345 26.5566C164.635 26.0035 164.141 25.362 163.862 24.6328C163.609 23.8784 163.482 23.0608 163.482 22.1807C163.482 21.0993 163.647 20.1563 163.977 19.3516C164.306 18.5468 164.838 17.8926 165.573 17.3896C166.308 16.8615 167.246 16.4712 168.387 16.2197C169.553 15.9682 170.96 15.8428 172.607 15.8428C173.748 15.8428 174.699 15.8806 175.46 15.9561C176.22 16.0063 176.663 16.0442 176.79 16.0693V15.4658C176.79 14.2838 176.384 13.3778 175.573 12.749C174.762 12.1205 173.508 11.8067 171.81 11.8066C171.049 11.8066 170.377 11.8813 169.794 12.0322C169.211 12.158 168.704 12.3223 168.273 12.5234C167.868 12.6995 167.512 12.8877 167.208 13.0889C166.929 13.2649 166.701 13.4033 166.523 13.5039C166.169 13.3027 165.852 12.988 165.573 12.5605C165.294 12.1079 165.155 11.605 165.155 11.0518C165.155 10.4985 165.333 10.0335 165.688 9.65625C166.042 9.25395 166.511 8.93923 167.094 8.71289C167.702 8.4614 168.387 8.28517 169.147 8.18457C169.933 8.08397 170.732 8.03418 171.543 8.03418ZM31.7764 0C32.3593 5.21974e-06 32.8915 0.0627828 33.373 0.188477C33.88 0.314224 34.1975 0.402825 34.3242 0.453125V27.8027H29.001V2.26367C29.001 1.40865 29.2538 0.817193 29.7607 0.490234C30.2677 0.16329 30.9398 0 31.7764 0ZM72.7061 8.56348C73.6438 8.56351 74.3789 8.76469 74.9111 9.16699C75.4686 9.54408 75.8234 9.84595 75.9756 10.0723C75.9502 10.1226 75.7219 10.3864 75.291 10.8643C74.8854 11.3169 74.3534 11.9213 73.6943 12.6758C73.0353 13.4302 72.2748 14.2976 71.4131 15.2783C70.5766 16.2339 69.7271 17.2397 68.8652 18.2959C69.7018 19.2516 70.5512 20.2333 71.4131 21.2393C72.3002 22.2451 73.1117 23.2002 73.8467 24.1055C74.6072 24.9857 75.2538 25.7663 75.7861 26.4453C76.3436 27.099 76.724 27.5513 76.9268 27.8027H70.4619C70.3604 27.6518 70.1456 27.3876 69.8164 27.0107C69.487 26.6085 69.0938 26.1432 68.6377 25.6152C68.2068 25.062 67.7246 24.4834 67.1924 23.8799C66.6854 23.2763 66.1906 22.6849 65.709 22.1064C64.7964 23.213 63.9479 24.2824 63.1621 25.3135C62.3764 26.3193 61.7424 27.1489 61.2607 27.8027H55.1387C55.4428 27.4004 55.8613 26.8725 56.3936 26.2188C56.9512 25.5649 57.5597 24.8351 58.2188 24.0303C58.9031 23.2255 59.6253 22.3702 60.3857 21.4648C61.1462 20.5343 61.9065 19.6163 62.667 18.7109C62.0841 18.0824 61.5136 17.4787 60.9561 16.9004C60.3985 16.297 59.8917 15.769 59.4355 15.3164C58.9793 14.8386 58.5864 14.4483 58.2568 14.1465C57.9528 13.8197 57.7499 13.5935 57.6484 13.4678C57.3442 13.1157 57.0395 12.7134 56.7354 12.2607C56.4312 11.8081 56.2793 11.3301 56.2793 10.8271C56.2793 10.1984 56.4821 9.66973 56.8877 9.24219C57.3186 8.7896 57.9272 8.56349 58.7129 8.56348C59.4477 8.56348 59.98 8.6263 60.3096 8.75195C60.6391 8.85255 60.8801 8.94115 61.0322 9.0166C61.3111 9.3687 61.8816 10.085 62.7432 11.166C63.6304 12.2223 64.6699 13.43 65.8613 14.7881C66.7485 13.7067 67.5089 12.7508 68.1426 11.9209C68.776 11.0662 69.1945 10.5383 69.3975 10.3369C69.8031 9.88422 70.2341 9.481 70.6904 9.12891C71.1467 8.75176 71.8189 8.56348 72.7061 8.56348ZM158.889 8.56348C159.472 8.56348 160.005 8.6262 160.486 8.75195C160.993 8.87757 161.31 8.96531 161.437 9.01562V27.8027H156.113V10.8271C156.113 9.97206 156.367 9.38065 156.874 9.05371C157.381 8.72691 158.052 8.56353 158.889 8.56348ZM14.1445 1.5459C15.1332 1.5459 15.8817 1.68429 16.3887 1.96094C16.9209 2.23754 17.2884 2.47656 17.4912 2.67773C17.9475 3.45737 18.4923 4.51377 19.126 5.84668C19.7597 7.15446 20.4191 8.61309 21.1035 10.2227C21.8133 11.807 22.5227 13.4669 23.2324 15.2021C23.9422 16.9123 24.6143 18.5721 25.248 20.1816C25.8818 21.7912 26.452 23.2628 26.959 24.5957C27.4912 25.9284 27.9097 26.997 28.2139 27.8018H22.3584C22.1556 27.2485 21.8636 26.5195 21.4834 25.6143C21.1285 24.6837 20.6974 23.5766 20.1904 22.2939H7.75684C7.24987 23.5765 6.81875 24.6708 6.46387 25.5762C6.10906 26.4813 5.81796 27.2234 5.58984 27.8018H0C0.557608 26.3182 1.15348 24.7844 1.78711 23.2002C2.44619 21.6158 3.09283 20.0556 3.72656 18.5215C4.38557 16.9624 5.01961 15.4536 5.62793 13.9951C6.26165 12.5365 6.84462 11.2033 7.37695 9.99609C7.90922 8.76392 8.37765 7.6824 8.7832 6.75195C9.21414 5.82142 9.55705 5.10455 9.81055 4.60156C10.3682 3.41966 10.9894 2.61501 11.6738 2.1875C12.3581 1.76012 13.1816 1.54596 14.1445 1.5459ZM107.163 7.9209C108.583 7.9209 109.876 8.09713 111.042 8.44922C112.233 8.80131 113.248 9.31711 114.084 9.99609C114.92 10.6751 115.566 11.5176 116.022 12.5234C116.479 13.5043 116.707 14.6363 116.707 15.9189V27.8018H111.384V16.9746C111.384 13.8562 109.926 12.2969 107.011 12.2969C105.946 12.2969 105.123 12.3856 104.54 12.5615C103.957 12.7375 103.539 12.888 103.285 13.0137V27.8018H97.9619V9.73145C98.0638 9.68098 98.3679 9.55536 98.874 9.35449C99.381 9.1533 100.028 8.95217 100.813 8.75098C101.625 8.52466 102.562 8.33546 103.627 8.18457C104.717 8.00853 105.896 7.92091 107.163 7.9209ZM150.244 7.9209C150.954 7.9209 151.626 7.97167 152.26 8.07227C152.893 8.17285 153.451 8.32327 153.933 8.52441C154.414 8.72554 154.794 8.98963 155.073 9.31641C155.352 9.64335 155.492 10.0466 155.492 10.5244C155.492 11.2284 155.352 11.7813 155.073 12.1836C154.795 12.5857 154.554 12.8877 154.352 13.0889C154.276 13.0134 154.11 12.9387 153.856 12.8633C153.603 12.7627 153.312 12.6741 152.982 12.5986C152.653 12.4981 152.285 12.4224 151.88 12.3721C151.5 12.3218 151.131 12.2969 150.776 12.2969C149.712 12.2969 148.889 12.4105 148.306 12.6367C147.723 12.8378 147.317 13.0012 147.089 13.127V27.8018H141.766V10.2217C141.867 10.1461 142.146 9.9825 142.602 9.73145C143.058 9.47998 143.654 9.229 144.389 8.97754C145.149 8.70089 146.024 8.46194 147.013 8.26074C148.001 8.03444 149.078 7.92092 150.244 7.9209ZM86.1182 19.125C85.1804 19.125 84.4199 19.2007 83.8369 19.3516C83.254 19.5024 82.7973 19.7156 82.4678 19.9922C82.1636 20.2437 81.948 20.5583 81.8213 20.9355C81.7199 21.2876 81.6689 21.665 81.6689 22.0674C81.669 22.4195 81.7199 22.759 81.8213 23.0859C81.9227 23.4129 82.1255 23.7146 82.4297 23.9912C82.7592 24.2427 83.2031 24.4568 83.7607 24.6328C84.3437 24.7837 85.0915 24.8594 86.0039 24.8594C86.9671 24.8594 87.7657 24.8215 88.3994 24.7461C89.0331 24.6455 89.4642 24.5698 89.6924 24.5195V19.3516C89.6164 19.3264 89.4643 19.3005 89.2363 19.2754C89.0082 19.2502 88.729 19.2253 88.3994 19.2002C88.0699 19.1751 87.7024 19.1621 87.2969 19.1621C86.9167 19.137 86.5237 19.125 86.1182 19.125ZM173.178 19.125C172.24 19.125 171.479 19.2007 170.896 19.3516C170.314 19.5025 169.857 19.7156 169.527 19.9922C169.223 20.2436 169.009 20.5584 168.882 20.9355C168.78 21.2876 168.729 21.665 168.729 22.0674C168.729 22.4195 168.78 22.759 168.882 23.0859C168.983 23.4128 169.186 23.7146 169.49 23.9912C169.82 24.2426 170.263 24.4568 170.82 24.6328C171.403 24.7837 172.152 24.8594 173.064 24.8594C174.028 24.8594 174.826 24.8215 175.46 24.7461C176.093 24.6456 176.524 24.5698 176.752 24.5195V19.3516C176.676 19.3264 176.524 19.3005 176.296 19.2754C176.068 19.2503 175.789 19.2253 175.46 19.2002C175.13 19.175 174.762 19.1621 174.356 19.1621C173.976 19.137 173.583 19.125 173.178 19.125ZM128.896 12.2979C127.425 12.2979 126.271 12.8385 125.435 13.9199C124.623 14.9762 124.218 16.385 124.218 18.1455C124.218 19.0257 124.332 19.8432 124.561 20.5977C124.814 21.3269 125.181 21.9683 125.663 22.5215C126.17 23.0748 126.804 23.5019 127.564 23.8037C128.35 24.1055 129.275 24.2568 130.34 24.2568C131.151 24.2568 131.81 24.219 132.317 24.1436C132.824 24.0681 133.153 23.9924 133.306 23.917V17.3154C133.306 15.8819 132.938 14.6871 132.203 13.7314C131.468 12.776 130.366 12.2979 128.896 12.2979ZM13.9932 6.94043C13.8664 7.19191 13.6508 7.66992 13.3467 8.37402C13.0678 9.07819 12.7249 9.92057 12.3193 10.9014C11.9391 11.8821 11.5089 12.9637 11.0273 14.1455C10.5457 15.3023 10.0764 16.4594 9.62012 17.6162H18.3271C17.8709 16.4595 17.4025 15.3022 16.9209 14.1455C16.4647 12.9636 16.0335 11.895 15.6279 10.9395C15.2224 9.95876 14.8676 9.11623 14.5635 8.41211C14.2846 7.70792 14.0946 7.21707 13.9932 6.94043ZM46.8252 11.543C46.014 11.543 45.3037 11.7182 44.6953 12.0703C44.0871 12.4223 43.5803 12.8627 43.1748 13.3906C42.7693 13.9187 42.4645 14.4973 42.2617 15.126C42.0589 15.7547 41.958 16.3591 41.958 16.9375H48.7637C49.6002 16.9375 50.1459 16.7732 50.3994 16.4463C50.6527 16.0943 50.7792 15.5789 50.7793 14.9004C50.7793 14.5484 50.7028 14.1709 50.5508 13.7686C50.424 13.3662 50.2085 13.0008 49.9043 12.6738C49.6001 12.3471 49.1943 12.0829 48.6875 11.8818C48.1807 11.6557 47.5599 11.543 46.8252 11.543ZM158.737 0C159.574 6.35586e-05 160.283 0.276856 160.866 0.830078C161.449 1.38337 161.741 2.0624 161.741 2.86719C161.741 3.67184 161.449 4.36303 160.866 4.94141C160.283 5.49463 159.574 5.77142 158.737 5.77148C157.926 5.77148 157.229 5.49469 156.646 4.94141C156.063 4.36307 155.772 3.67176 155.771 2.86719C155.771 2.06248 156.063 1.38334 156.646 0.830078C157.229 0.276788 157.926 0 158.737 0Z" fill="white"/>
<path d="M81.1749 55.8709C81.1749 56.1204 81.0856 56.3338 80.9071 56.5109C80.7367 56.688 80.5257 56.7766 80.2742 56.7766C80.0145 56.7766 79.7954 56.688 79.6169 56.5109C79.4384 56.3338 79.3491 56.1204 79.3491 55.8709C79.3491 55.6133 79.4384 55.3959 79.6169 55.2188C79.7954 55.0417 80.0145 54.9531 80.2742 54.9531C80.5257 54.9531 80.7367 55.0417 80.9071 55.2188C81.0856 55.3959 81.1749 55.6133 81.1749 55.8709Z" fill="white"/>
<path d="M77.8192 51.3784C77.6163 51.3784 77.4378 51.3945 77.2836 51.4267C77.1294 51.4508 76.9956 51.483 76.882 51.5233C76.7765 51.5555 76.6913 51.5917 76.6263 51.632C76.5614 51.6642 76.5168 51.6883 76.4925 51.7044V56.583H75.2388V51.0644C75.2631 51.0402 75.3361 50.9919 75.4579 50.9195C75.5877 50.839 75.7581 50.7585 75.9691 50.678C76.1882 50.5894 76.4438 50.5129 76.7359 50.4485C77.028 50.3761 77.3567 50.3398 77.7218 50.3398C78.0464 50.3398 78.3101 50.36 78.513 50.4002C78.7239 50.4405 78.8903 50.4928 79.012 50.5572C79.2392 50.6699 79.3528 50.8349 79.3528 51.0523C79.3528 51.2053 79.3204 51.3341 79.2554 51.4387C79.1905 51.5434 79.1337 51.6159 79.085 51.6561C79.0039 51.5997 78.8457 51.5394 78.6103 51.475C78.375 51.4106 78.1113 51.3784 77.8192 51.3784Z" fill="white"/>
<path d="M74.2207 52.6467C74.2207 53.1136 74.0909 53.4799 73.8312 53.7456C73.5716 54.0112 73.1293 54.1441 72.5045 54.1441H69.6563C69.7293 54.6512 69.9403 55.0417 70.2892 55.3154C70.6463 55.5891 71.125 55.726 71.7255 55.726C72.188 55.726 72.5654 55.6817 72.8575 55.5932C73.1577 55.4965 73.3606 55.416 73.4661 55.3516L73.8556 56.2573C73.815 56.2815 73.7298 56.3257 73.5999 56.3902C73.4782 56.4465 73.3159 56.5029 73.1131 56.5592C72.9183 56.6156 72.6871 56.6639 72.4193 56.7041C72.1596 56.7524 71.8756 56.7766 71.5673 56.7766C71.1129 56.7766 70.6868 56.7122 70.2892 56.5834C69.8997 56.4546 69.5589 56.2613 69.2668 56.0037C68.9747 55.7461 68.7434 55.4201 68.573 55.0256C68.4107 54.6311 68.3296 54.1722 68.3296 53.649C68.3296 53.1579 68.4067 52.7111 68.5609 52.3085C68.7231 51.898 68.9463 51.5478 69.2303 51.258C69.5143 50.9601 69.8511 50.7306 70.2406 50.5696C70.63 50.4086 71.0601 50.3281 71.5308 50.3281C71.9689 50.3281 72.3544 50.3885 72.6871 50.5093C73.0279 50.622 73.3078 50.783 73.5269 50.9923C73.7541 51.1936 73.9245 51.4351 74.0381 51.7168C74.1599 51.9986 74.2207 52.3085 74.2207 52.6467ZM73.0157 52.5259C73.0157 52.373 72.9873 52.22 72.9305 52.067C72.8818 51.9141 72.7966 51.7772 72.6749 51.6565C72.5532 51.5357 72.395 51.4391 72.2002 51.3666C72.0136 51.2861 71.7864 51.2459 71.5186 51.2459C71.2102 51.2459 70.9384 51.3103 70.7031 51.4391C70.4678 51.5599 70.269 51.7168 70.1067 51.91C69.9525 52.1033 69.8348 52.3206 69.7537 52.5621C69.6725 52.7956 69.6279 53.0291 69.6198 53.2625H72.188C72.4801 53.2625 72.6911 53.2102 72.821 53.1055C72.9508 53.0009 73.0157 52.8077 73.0157 52.5259Z" fill="white"/>
<path d="M61.9952 53.5162C61.9952 53.8463 62.0398 54.1522 62.1291 54.4339C62.2184 54.7077 62.3563 54.9452 62.5429 55.1464C62.7377 55.3477 62.9811 55.5047 63.2732 55.6174C63.5735 55.722 63.9265 55.7744 64.3322 55.7744C64.6892 55.7744 64.9611 55.7583 65.1477 55.7261C65.3424 55.6939 65.4723 55.6657 65.5372 55.6415V53.3834C65.5372 53.1016 65.5007 52.8399 65.4276 52.5984C65.3546 52.3569 65.2451 52.1476 65.099 51.9705C64.9529 51.7853 64.7704 51.6444 64.5513 51.5478C64.3403 51.4432 64.0887 51.3909 63.7966 51.3909C63.2043 51.3909 62.7539 51.58 62.4456 51.9584C62.1453 52.3368 61.9952 52.8561 61.9952 53.5162ZM66.803 56.5834C66.7706 56.5915 66.6894 56.6036 66.5596 56.6197C66.4379 56.6358 66.2756 56.6519 66.0727 56.668C65.878 56.6921 65.6467 56.7122 65.379 56.7283C65.1112 56.7444 64.8191 56.7525 64.5026 56.7525C63.8534 56.7525 63.2895 56.676 62.8107 56.5231C62.332 56.362 61.9344 56.1366 61.6179 55.8468C61.3014 55.557 61.0661 55.2068 60.9119 54.7962C60.7577 54.3856 60.6807 53.9268 60.6807 53.4196C60.6807 52.9366 60.7537 52.5059 60.8998 52.1275C61.0458 51.7411 61.2446 51.419 61.4962 51.1614C61.7477 50.8957 62.0439 50.6945 62.3847 50.5576C62.7336 50.4208 63.111 50.3523 63.5167 50.3523C63.8494 50.3523 64.1334 50.3926 64.3687 50.4731C64.6121 50.5536 64.815 50.6502 64.9773 50.7629C65.1396 50.8676 65.2653 50.9722 65.3546 51.0769C65.4439 51.1815 65.5047 51.258 65.5372 51.3063V48.2512C65.5372 47.8728 65.7603 47.6836 66.2066 47.6836C66.3446 47.6836 66.4663 47.6997 66.5718 47.7319C66.6854 47.7641 66.7625 47.7883 66.803 47.8044V56.5834Z" fill="white"/>
<path d="M59.0163 53.5524C59.0163 54.0112 58.9352 54.4379 58.7729 54.8324C58.6187 55.2269 58.3996 55.569 58.1156 55.8588C57.8316 56.1406 57.4908 56.366 57.0932 56.5351C56.6956 56.6961 56.2574 56.7766 55.7787 56.7766C55.2999 56.7766 54.8577 56.6961 54.4519 56.5351C54.0543 56.366 53.7135 56.1406 53.4295 55.8588C53.1455 55.569 52.9224 55.2269 52.7601 54.8324C52.6059 54.4379 52.5288 54.0112 52.5288 53.5524C52.5288 53.0935 52.6059 52.6668 52.7601 52.2723C52.9224 51.8778 53.1455 51.5397 53.4295 51.258C53.7135 50.9681 54.0543 50.7427 54.4519 50.5817C54.8577 50.4127 55.2999 50.3281 55.7787 50.3281C56.2574 50.3281 56.6956 50.4127 57.0932 50.5817C57.4908 50.7427 57.8316 50.9681 58.1156 51.258C58.3996 51.5397 58.6187 51.8778 58.7729 52.2723C58.9352 52.6668 59.0163 53.0935 59.0163 53.5524ZM57.714 53.5524C57.714 53.2303 57.6693 52.9365 57.5801 52.6708C57.4908 52.3971 57.361 52.1636 57.1906 51.9704C57.0283 51.7692 56.8254 51.6162 56.582 51.5115C56.3467 51.3988 56.0789 51.3425 55.7787 51.3425C55.4703 51.3425 55.1944 51.3988 54.951 51.5115C54.7157 51.6162 54.5128 51.7692 54.3424 51.9704C54.1801 52.1636 54.0543 52.3971 53.9651 52.6708C53.8758 52.9365 53.8312 53.2303 53.8312 53.5524C53.8312 53.8744 53.8758 54.1722 53.9651 54.446C54.0543 54.7116 54.1801 54.9451 54.3424 55.1463C54.5128 55.3396 54.7157 55.4925 54.951 55.6052C55.1944 55.7099 55.4703 55.7622 55.7787 55.7622C56.0789 55.7622 56.3467 55.7099 56.582 55.6052C56.8254 55.4925 57.0283 55.3396 57.1906 55.1463C57.361 54.9451 57.4908 54.7116 57.5801 54.446C57.6693 54.1722 57.714 53.8744 57.714 53.5524Z" fill="white"/>
<path d="M45.6777 50.8715C45.7102 50.8554 45.7954 50.8192 45.9333 50.7629C46.0713 50.6984 46.2539 50.634 46.4811 50.5696C46.7083 50.5052 46.972 50.4489 47.2722 50.4006C47.5725 50.3523 47.9052 50.3281 48.2703 50.3281C48.8383 50.3281 49.3414 50.4127 49.7796 50.5817C50.2178 50.7427 50.5829 50.9722 50.8751 51.27C51.1753 51.5599 51.3984 51.91 51.5445 52.3206C51.6987 52.7312 51.7758 53.178 51.7758 53.661C51.7758 54.1521 51.7027 54.5868 51.5567 54.9652C51.4106 55.3355 51.2078 55.6495 50.9481 55.9071C50.6965 56.1567 50.3963 56.3459 50.0474 56.4747C49.6985 56.6035 49.3211 56.6679 48.9154 56.6679C48.5827 56.6679 48.2947 56.6357 48.0512 56.5713C47.8159 56.4988 47.6171 56.4183 47.4548 56.3298C47.3006 56.2412 47.1789 56.1567 47.0897 56.0762C47.0085 55.9957 46.9558 55.9393 46.9314 55.9071V58.9985H45.6777V50.8715ZM50.4612 53.5765C50.4612 53.2625 50.4166 52.9687 50.3273 52.695C50.2381 52.4213 50.1042 52.1878 49.9257 51.9946C49.7472 51.7933 49.5199 51.6363 49.2441 51.5236C48.9763 51.4029 48.6558 51.3425 48.2825 51.3425C47.8768 51.3425 47.5644 51.3787 47.3453 51.4512C47.1262 51.5236 46.9882 51.5719 46.9314 51.5961V54.5667C46.972 54.6633 47.0288 54.772 47.1018 54.8928C47.183 55.0135 47.2885 55.1302 47.4183 55.243C47.5562 55.3476 47.7266 55.4402 47.9295 55.5207C48.1324 55.5932 48.388 55.6294 48.6963 55.6294C49.2562 55.6294 49.6904 55.4523 49.9987 55.098C50.3071 54.7438 50.4612 54.2366 50.4612 53.5765Z" fill="white"/>
<path d="M39.3326 51.091C39.3326 50.8978 39.3894 50.7569 39.503 50.6683C39.6166 50.5717 39.7789 50.5234 39.9899 50.5234C40.1278 50.5234 40.2495 50.5395 40.355 50.5717C40.4686 50.6039 40.5457 50.6281 40.5863 50.6442V56.5855C40.5295 56.6016 40.428 56.6177 40.282 56.6338C40.144 56.6499 39.9736 56.666 39.7708 56.6821C39.5679 56.7062 39.3448 56.7223 39.1013 56.7304C38.8579 56.7465 38.6104 56.7545 38.3588 56.7545C37.6204 56.7545 37.0199 56.666 36.5574 56.4889C36.103 56.3117 35.7419 56.0541 35.4741 55.716C35.1414 55.2893 34.9751 54.7218 34.9751 54.0133V51.091C34.9751 50.8978 35.0319 50.7569 35.1455 50.6683C35.2591 50.5717 35.4214 50.5234 35.6324 50.5234C35.7703 50.5234 35.892 50.5395 35.9975 50.5717C36.1111 50.6039 36.1882 50.6281 36.2288 50.6442V53.8805C36.2288 54.4923 36.383 54.9512 36.6913 55.2571C37.0078 55.5631 37.5393 55.716 38.2858 55.716C38.5698 55.716 38.797 55.708 38.9674 55.6919C39.1459 55.6677 39.2677 55.6476 39.3326 55.6315V51.091Z" fill="white"/>
<path d="M33.9668 52.6467C33.9668 53.1136 33.837 53.4799 33.5773 53.7456C33.3176 54.0112 32.8754 54.1441 32.2506 54.1441H29.4024C29.4754 54.6512 29.6864 55.0417 30.0353 55.3154C30.3924 55.5891 30.8711 55.726 31.4716 55.726C31.9341 55.726 32.3115 55.6817 32.6036 55.5932C32.9038 55.4965 33.1067 55.416 33.2122 55.3516L33.6017 56.2573C33.5611 56.2815 33.4759 56.3257 33.346 56.3902C33.2243 56.4465 33.062 56.5029 32.8592 56.5592C32.6644 56.6156 32.4332 56.6639 32.1654 56.7041C31.9057 56.7524 31.6217 56.7766 31.3134 56.7766C30.859 56.7766 30.4329 56.7122 30.0353 56.5834C29.6458 56.4546 29.305 56.2613 29.0129 56.0037C28.7208 55.7461 28.4895 55.4201 28.3191 55.0256C28.1568 54.6311 28.0757 54.1722 28.0757 53.649C28.0757 53.1579 28.1528 52.7111 28.3069 52.3085C28.4692 51.898 28.6924 51.5478 28.9764 51.258C29.2604 50.9601 29.5972 50.7306 29.9866 50.5696C30.3761 50.4086 30.8062 50.3281 31.2769 50.3281C31.715 50.3281 32.1005 50.3885 32.4332 50.5093C32.774 50.622 33.0539 50.783 33.273 50.9923C33.5002 51.1936 33.6706 51.4351 33.7842 51.7168C33.9059 51.9986 33.9668 52.3085 33.9668 52.6467ZM32.7618 52.5259C32.7618 52.373 32.7334 52.22 32.6766 52.067C32.6279 51.9141 32.5427 51.7772 32.421 51.6565C32.2993 51.5357 32.141 51.4391 31.9463 51.3666C31.7597 51.2861 31.5325 51.2459 31.2647 51.2459C30.9563 51.2459 30.6845 51.3103 30.4492 51.4391C30.2139 51.5599 30.015 51.7168 29.8528 51.91C29.6986 52.1033 29.5809 52.3206 29.4998 52.5621C29.4186 52.7956 29.374 53.0291 29.3659 53.2625H31.9341C32.2262 53.2625 32.4372 53.2102 32.5671 53.1055C32.6969 53.0009 32.7618 52.8077 32.7618 52.5259Z" fill="white"/>
<path d="M24.552 51.2935C24.0246 51.2935 23.6513 51.3659 23.4322 51.5108C23.2131 51.6557 23.1036 51.861 23.1036 52.1267C23.1036 52.3441 23.1969 52.5091 23.3835 52.6218C23.5702 52.7345 23.8501 52.819 24.2234 52.8754L25.2701 53.0203C26.0491 53.133 26.6009 53.3383 26.9255 53.6362C27.2582 53.926 27.4245 54.3084 27.4245 54.7834C27.4245 55.363 27.1973 55.838 26.7429 56.2083C26.2885 56.5706 25.5947 56.7517 24.6616 56.7517C24.2315 56.7517 23.842 56.7155 23.4931 56.643C23.1523 56.5786 22.8601 56.5062 22.6167 56.4257C22.3733 56.3371 22.1785 56.2526 22.0325 56.1721C21.8945 56.0835 21.8093 56.0272 21.7769 56.003L22.2759 55.1336C22.3084 55.1577 22.3854 55.206 22.5072 55.2785C22.637 55.3429 22.8033 55.4153 23.0062 55.4958C23.2091 55.5683 23.4484 55.6327 23.7243 55.689C24.0002 55.7454 24.3086 55.7736 24.6494 55.7736C25.1119 55.7736 25.4689 55.7132 25.7205 55.5924C25.972 55.4636 26.0978 55.2543 26.0978 54.9645C26.0978 54.731 26.0045 54.5539 25.8179 54.4332C25.6394 54.3044 25.3107 54.2078 24.832 54.1433L23.9921 54.0226C23.3105 53.926 22.7831 53.7408 22.4098 53.4671C22.0365 53.1853 21.8499 52.7748 21.8499 52.2354C21.8499 51.9858 21.8945 51.7483 21.9838 51.5229C22.073 51.2975 22.2191 51.1003 22.422 50.9312C22.6329 50.7541 22.9048 50.6132 23.2375 50.5085C23.5783 50.4039 23.9962 50.3516 24.4912 50.3516C25.0511 50.3516 25.4973 50.3958 25.83 50.4844C26.1627 50.573 26.4102 50.6575 26.5725 50.738C26.9052 50.907 27.0716 51.1123 27.0716 51.3539C27.0716 51.5149 27.0269 51.6477 26.9377 51.7523C26.8484 51.849 26.7591 51.9254 26.6699 51.9818C26.6537 51.9657 26.5969 51.9214 26.4995 51.849C26.4102 51.7685 26.2804 51.6879 26.11 51.6074C25.9396 51.5269 25.7246 51.4545 25.4649 51.3901C25.2052 51.3257 24.9009 51.2935 24.552 51.2935Z" fill="white"/>
<path d="M10.0012 50.3281C10.5205 50.3281 10.9831 50.4207 11.3888 50.6059C11.8026 50.783 12.1313 51.0647 12.3747 51.4512C12.5857 51.113 12.8778 50.8434 13.2511 50.6421C13.6243 50.4328 14.0666 50.3281 14.5778 50.3281C14.9267 50.3281 15.2553 50.3764 15.5637 50.473C15.872 50.5696 16.1398 50.7145 16.367 50.9078C16.5942 51.0929 16.7727 51.3304 16.9026 51.6202C17.0324 51.902 17.0973 52.2361 17.0973 52.6225V56.5834H15.8315V53.0452C15.8315 52.4655 15.7057 52.0429 15.4541 51.7772C15.2026 51.5115 14.8456 51.3787 14.383 51.3787C13.9286 51.3787 13.5594 51.5276 13.2754 51.8255C12.9914 52.1153 12.8494 52.5742 12.8494 53.2022V56.5834H11.5957V53.1538C11.5957 52.534 11.4537 52.0831 11.1697 51.8014C10.8857 51.5196 10.4881 51.3787 9.97686 51.3787C9.57925 51.3787 9.2709 51.4149 9.05181 51.4874C8.83272 51.5599 8.69477 51.6122 8.63797 51.6444V56.5834H7.38428V50.8595C7.41674 50.8434 7.49788 50.8071 7.62771 50.7508C7.76566 50.6944 7.94418 50.634 8.16327 50.5696C8.39048 50.5052 8.65825 50.4489 8.9666 50.4006C9.27495 50.3523 9.61982 50.3281 10.0012 50.3281Z" fill="white"/>
<path d="M6.36476 52.6467C6.36476 53.1136 6.23492 53.4799 5.97526 53.7456C5.7156 54.0112 5.27336 54.1441 4.64854 54.1441H1.80035C1.87338 54.6512 2.08436 55.0417 2.43328 55.3154C2.79032 55.5891 3.26908 55.726 3.86955 55.726C4.33208 55.726 4.7094 55.6817 5.00152 55.5932C5.30176 55.4965 5.50462 55.416 5.61011 55.3516L5.9996 56.2573C5.95903 56.2815 5.87383 56.3257 5.744 56.3902C5.62228 56.4465 5.45999 56.5029 5.25713 56.5592C5.06238 56.6156 4.83112 56.6639 4.56334 56.7041C4.30367 56.7524 4.01967 56.7766 3.71132 56.7766C3.2569 56.7766 2.83089 56.7122 2.43328 56.5834C2.04379 56.4546 1.70298 56.2613 1.41086 56.0037C1.11874 55.7461 0.887472 55.4201 0.717068 55.0256C0.554778 54.6311 0.473633 54.1722 0.473633 53.649C0.473633 53.1579 0.550721 52.7111 0.704896 52.3085C0.867186 51.898 1.09033 51.5478 1.37434 51.258C1.65835 50.9601 1.9951 50.7306 2.3846 50.5696C2.77409 50.4086 3.20416 50.3281 3.6748 50.3281C4.11298 50.3281 4.49842 50.3885 4.83112 50.5093C5.17193 50.622 5.45188 50.783 5.67097 50.9923C5.89817 51.1936 6.06858 51.4351 6.18218 51.7168C6.3039 51.9986 6.36476 52.3085 6.36476 52.6467ZM5.15975 52.5259C5.15975 52.373 5.13135 52.22 5.07455 52.067C5.02586 51.9141 4.94066 51.7772 4.81894 51.6565C4.69723 51.5357 4.53899 51.4391 4.34425 51.3666C4.15761 51.2861 3.93041 51.2459 3.66263 51.2459C3.35428 51.2459 3.08244 51.3103 2.84712 51.4391C2.6118 51.5599 2.413 51.7168 2.25071 51.91C2.09653 52.1033 1.97887 52.3206 1.89773 52.5621C1.81658 52.7956 1.77195 53.0291 1.76384 53.2625H4.33208C4.6242 53.2625 4.83517 53.2102 4.96501 53.1055C5.09484 53.0009 5.15975 52.8077 5.15975 52.5259Z" fill="white"/>
<path d="M53.1826 40.2995C53.1582 40.2915 53.0974 40.2834 53 40.2754C52.9026 40.2673 52.785 40.2593 52.647 40.2512C52.5091 40.2351 52.359 40.2231 52.1967 40.215C52.0425 40.207 51.8924 40.2029 51.7463 40.2029C51.1377 40.2029 50.6995 40.2955 50.4318 40.4807C50.1721 40.6658 50.0423 40.9516 50.0423 41.338C50.0423 41.4991 50.0666 41.648 50.1153 41.7849C50.164 41.9217 50.2532 42.0384 50.3831 42.135C50.5129 42.2317 50.6874 42.3081 50.9065 42.3645C51.1256 42.4128 51.4014 42.4369 51.7341 42.4369C52.148 42.4369 52.4726 42.4208 52.7079 42.3886C52.9432 42.3564 53.1014 42.3283 53.1826 42.3041V40.2995ZM51.3446 37.8482C51.1093 37.8482 50.8983 37.8683 50.7117 37.9085C50.5332 37.9488 50.375 37.9971 50.237 38.0534C50.1072 38.1017 49.9976 38.1581 49.9084 38.2225C49.8191 38.2789 49.7461 38.3272 49.6893 38.3674C49.6 38.3111 49.5229 38.2306 49.458 38.1259C49.3931 38.0212 49.3606 37.9005 49.3606 37.7636C49.3606 37.6268 49.3972 37.5141 49.4702 37.4255C49.5513 37.3289 49.6568 37.2484 49.7867 37.184C49.9246 37.1196 50.1153 37.0592 50.3587 37.0029C50.6022 36.9385 50.9065 36.9062 51.2716 36.9062C51.7585 36.9062 52.1967 36.9505 52.5862 37.0391C52.9757 37.1276 53.3043 37.2766 53.5721 37.4859C53.848 37.6871 54.0589 37.9528 54.205 38.2829C54.3511 38.613 54.4241 39.0155 54.4241 39.4905V43.1011C54.278 43.1333 53.9697 43.1736 53.499 43.2219C53.0365 43.2782 52.432 43.3064 51.6855 43.3064C51.0769 43.3064 50.5819 43.25 50.2005 43.1373C49.8272 43.0327 49.5351 42.8918 49.3241 42.7147C49.1132 42.5295 48.9712 42.3202 48.8981 42.0867C48.8251 41.8533 48.7886 41.6118 48.7886 41.3622C48.7886 41.0482 48.8373 40.7665 48.9346 40.5169C49.032 40.2673 49.1902 40.058 49.4093 39.889C49.6284 39.7199 49.9165 39.5911 50.2735 39.5025C50.6387 39.4059 51.085 39.3576 51.6124 39.3576C51.9776 39.3576 52.3062 39.3657 52.5983 39.3818C52.8986 39.3979 53.0974 39.414 53.1947 39.4301V39.3697C53.1947 39.2409 53.1826 39.1201 53.1582 39.0074C53.0933 38.6291 52.9148 38.3433 52.6227 38.1501C52.3387 37.9488 51.9127 37.8482 51.3446 37.8482Z" fill="white"/>
<path d="M48.3294 34.9326C48.3294 35.142 48.2523 35.3231 48.0982 35.4761C47.944 35.621 47.7574 35.6934 47.5383 35.6934C47.3273 35.6934 47.1447 35.621 46.9905 35.4761C46.8364 35.3231 46.7593 35.142 46.7593 34.9326C46.7593 34.7233 46.8364 34.5462 46.9905 34.4013C47.1447 34.2484 47.3273 34.1719 47.5383 34.1719C47.7574 34.1719 47.944 34.2484 48.0982 34.4013C48.2523 34.5462 48.3294 34.7233 48.3294 34.9326ZM46.9175 37.5772C46.9175 37.376 46.9743 37.2311 47.0879 37.1425C47.2096 37.054 47.376 37.0097 47.587 37.0097C47.7249 37.0097 47.8466 37.0258 47.9521 37.058C48.0657 37.0821 48.1428 37.1023 48.1834 37.1184V43.0717H46.9175V37.5772Z" fill="white"/>
<path d="M44.8218 39.8648C44.8218 40.3237 44.7326 40.7302 44.5541 41.0845C44.3756 41.4306 44.1321 41.7325 43.8238 41.9901C44.0429 42.1109 44.2173 42.2437 44.3472 42.3886C44.4851 42.5255 44.5906 42.6664 44.6636 42.8113C44.7366 42.9562 44.7853 43.0931 44.8097 43.2219C44.834 43.3587 44.8462 43.4755 44.8462 43.5721C44.8462 43.9021 44.7732 44.196 44.6271 44.4536C44.4892 44.7193 44.2903 44.9407 44.0307 45.1178C43.771 45.3029 43.4586 45.4438 43.0935 45.5404C42.7364 45.6451 42.3429 45.6974 41.9128 45.6974C41.4503 45.6974 41.0405 45.6612 40.6835 45.5887C40.3345 45.5243 40.0384 45.4478 39.7949 45.3593C39.5596 45.2707 39.373 45.1862 39.235 45.1057C39.1052 45.0252 39.0281 44.9729 39.0038 44.9487L39.5271 44.0189C39.5677 44.0511 39.6448 44.1034 39.7584 44.1759C39.8801 44.2483 40.0343 44.3208 40.2209 44.3932C40.4157 44.4737 40.6429 44.5422 40.9026 44.5985C41.1622 44.6549 41.4543 44.683 41.7789 44.683C42.0224 44.683 42.2496 44.6589 42.4605 44.6106C42.6715 44.5703 42.8541 44.5019 43.0083 44.4053C43.1624 44.3167 43.2842 44.196 43.3734 44.043C43.4627 43.8981 43.5073 43.721 43.5073 43.5117C43.5073 43.3587 43.4546 43.1897 43.3491 43.0045C43.2517 42.8193 43.0732 42.6664 42.8135 42.5456C42.6837 42.5939 42.5214 42.6342 42.3266 42.6664C42.1319 42.6986 41.9574 42.7147 41.8033 42.7147C41.3651 42.7147 40.9594 42.6422 40.5861 42.4973C40.2209 42.3524 39.9045 42.1512 39.6367 41.8935C39.3689 41.6359 39.1579 41.33 39.0038 40.9758C38.8577 40.6216 38.7847 40.2311 38.7847 39.8044C38.7847 39.3778 38.8618 38.9873 39.0159 38.6331C39.1701 38.2789 39.3811 37.9729 39.6489 37.7153C39.9166 37.4577 40.2331 37.2605 40.5983 37.1236C40.9715 36.9787 41.3732 36.9062 41.8033 36.9062C41.998 36.9062 42.1887 36.9224 42.3753 36.9546C42.562 36.9868 42.7405 37.0351 42.9109 37.0995H44.8097C45.0207 37.0995 45.1667 37.1478 45.2479 37.2444C45.3371 37.3329 45.3817 37.4577 45.3817 37.6187C45.3817 37.7314 45.3615 37.8321 45.3209 37.9206C45.2803 38.0092 45.2479 38.0695 45.2235 38.1017H44.1281C44.3877 38.3352 44.5662 38.617 44.6636 38.9471C44.7691 39.2691 44.8218 39.575 44.8218 39.8648ZM43.556 39.8044C43.556 39.2248 43.3937 38.7619 43.0691 38.4157C42.7527 38.0615 42.3307 37.8844 41.8033 37.8844C41.2677 37.8844 40.8376 38.0615 40.5131 38.4157C40.1966 38.7699 40.0384 39.2328 40.0384 39.8044C40.0384 40.3841 40.1966 40.851 40.5131 41.2052C40.8376 41.5594 41.2677 41.7366 41.8033 41.7366C42.3307 41.7366 42.7527 41.5594 43.0691 41.2052C43.3937 40.851 43.556 40.3841 43.556 39.8044Z" fill="white"/>
<path d="M35.8739 37.9448C35.671 37.9448 35.4925 37.9609 35.3383 37.9931C35.1841 38.0172 35.0502 38.0494 34.9366 38.0897C34.8312 38.1219 34.746 38.1581 34.681 38.1984C34.6161 38.2306 34.5715 38.2547 34.5471 38.2708V43.1494H33.2935V37.6308C33.3178 37.6066 33.3908 37.5583 33.5125 37.4859C33.6424 37.4054 33.8128 37.3249 34.0238 37.2444C34.2429 37.1558 34.4985 37.0793 34.7906 37.0149C35.0827 36.9425 35.4113 36.9062 35.7765 36.9062C36.1011 36.9062 36.3648 36.9264 36.5677 36.9666C36.7786 37.0069 36.945 37.0592 37.0667 37.1236C37.2939 37.2363 37.4075 37.4014 37.4075 37.6187C37.4075 37.7717 37.375 37.9005 37.3101 38.0051C37.2452 38.1098 37.1884 38.1823 37.1397 38.2225C37.0586 38.1662 36.9003 38.1058 36.665 38.0414C36.4297 37.977 36.166 37.9448 35.8739 37.9448Z" fill="white"/>
<path d="M31.9151 39.2248C31.9151 39.6917 31.7852 40.058 31.5256 40.3237C31.2659 40.5894 30.8237 40.7222 30.1988 40.7222H27.3506C27.4237 41.2294 27.6347 41.6198 27.9836 41.8935C28.3406 42.1673 28.8194 42.3041 29.4198 42.3041C29.8824 42.3041 30.2597 42.2598 30.5518 42.1713C30.8521 42.0747 31.0549 41.9942 31.1604 41.9298L31.5499 42.8354C31.5093 42.8596 31.4241 42.9039 31.2943 42.9683C31.1726 43.0246 31.0103 43.081 30.8074 43.1373C30.6127 43.1937 30.3814 43.242 30.1136 43.2822C29.854 43.3305 29.57 43.3547 29.2616 43.3547C28.8072 43.3547 28.3812 43.2903 27.9836 43.1615C27.5941 43.0327 27.2533 42.8395 26.9612 42.5819C26.669 42.3242 26.4378 41.9982 26.2674 41.6037C26.1051 41.2092 26.0239 40.7504 26.0239 40.2271C26.0239 39.736 26.101 39.2892 26.2552 38.8867C26.4175 38.4761 26.6406 38.1259 26.9246 37.8361C27.2086 37.5382 27.5454 37.3088 27.9349 37.1478C28.3244 36.9868 28.7545 36.9062 29.2251 36.9062C29.6633 36.9062 30.0487 36.9666 30.3814 37.0874C30.7222 37.2001 31.0022 37.3611 31.2213 37.5704C31.4485 37.7717 31.6189 38.0132 31.7325 38.295C31.8542 38.5767 31.9151 38.8867 31.9151 39.2248ZM30.71 39.104C30.71 38.9511 30.6816 38.7981 30.6248 38.6452C30.5762 38.4922 30.491 38.3553 30.3692 38.2346C30.2475 38.1138 30.0893 38.0172 29.8945 37.9448C29.7079 37.8643 29.4807 37.824 29.2129 37.824C28.9046 37.824 28.6327 37.8884 28.3974 38.0172C28.1621 38.138 27.9633 38.295 27.801 38.4882C27.6468 38.6814 27.5292 38.8987 27.448 39.1403C27.3669 39.3737 27.3222 39.6072 27.3141 39.8407H29.8824C30.1745 39.8407 30.3855 39.7883 30.5153 39.6837C30.6451 39.579 30.71 39.3858 30.71 39.104Z" fill="white"/>
<path d="M23.3928 43.1615V39.7561C23.3928 39.1684 23.2508 38.7216 22.9668 38.4157C22.6828 38.1098 22.2365 37.9568 21.6279 37.9568C21.2141 37.9568 20.8854 37.9971 20.642 38.0776C20.3986 38.1501 20.2444 38.2024 20.1795 38.2346V43.1615H18.9258V37.4376C18.9582 37.4215 19.0475 37.3853 19.1936 37.3289C19.3396 37.2725 19.5344 37.2122 19.7778 37.1478C20.0212 37.0834 20.3052 37.027 20.6298 36.9787C20.9544 36.9304 21.3114 36.9062 21.7009 36.9062C22.1472 36.9062 22.553 36.9666 22.9181 37.0874C23.2833 37.2001 23.5916 37.3651 23.8432 37.5825C24.1028 37.7999 24.3016 38.0615 24.4396 38.3674C24.5775 38.6733 24.6465 39.0195 24.6465 39.4059V43.1615H23.3928Z" fill="white"/>
<path d="M17.5493 39.2248C17.5493 39.6917 17.4195 40.058 17.1598 40.3237C16.9002 40.5894 16.4579 40.7222 15.8331 40.7222H12.9849C13.058 41.2294 13.2689 41.6198 13.6179 41.8935C13.9749 42.1673 14.4536 42.3041 15.0541 42.3041C15.5166 42.3041 15.894 42.2598 16.1861 42.1713C16.4863 42.0747 16.6892 41.9942 16.7947 41.9298L17.1842 42.8354C17.1436 42.8596 17.0584 42.9039 16.9286 42.9683C16.8068 43.0246 16.6446 43.081 16.4417 43.1373C16.2469 43.1937 16.0157 43.242 15.7479 43.2822C15.4882 43.3305 15.2042 43.3547 14.8959 43.3547C14.4415 43.3547 14.0155 43.2903 13.6179 43.1615C13.2284 43.0327 12.8875 42.8395 12.5954 42.5819C12.3033 42.3242 12.072 41.9982 11.9016 41.6037C11.7393 41.2092 11.6582 40.7504 11.6582 40.2271C11.6582 39.736 11.7353 39.2892 11.8895 38.8867C12.0518 38.4761 12.2749 38.1259 12.5589 37.8361C12.8429 37.5382 13.1797 37.3088 13.5692 37.1478C13.9587 36.9868 14.3887 36.9062 14.8594 36.9062C15.2976 36.9062 15.683 36.9666 16.0157 37.0874C16.3565 37.2001 16.6364 37.3611 16.8555 37.5704C17.0827 37.7717 17.2531 38.0132 17.3667 38.295C17.4885 38.5767 17.5493 38.8867 17.5493 39.2248ZM16.3443 39.104C16.3443 38.9511 16.3159 38.7981 16.2591 38.6452C16.2104 38.4922 16.1252 38.3553 16.0035 38.2346C15.8818 38.1138 15.7236 38.0172 15.5288 37.9448C15.3422 37.8643 15.115 37.824 14.8472 37.824C14.5388 37.824 14.267 37.8884 14.0317 38.0172C13.7964 38.138 13.5976 38.295 13.4353 38.4882C13.2811 38.6814 13.1634 38.8987 13.0823 39.1403C13.0012 39.3737 12.9565 39.6072 12.9484 39.8407H15.5166C15.8088 39.8407 16.0197 39.7883 16.1496 39.6837C16.2794 39.579 16.3443 39.3858 16.3443 39.104Z" fill="white"/>
<path d="M0 42.6171C0.251549 41.9409 0.523384 41.2405 0.815505 40.5159C1.10763 39.7914 1.39163 39.091 1.66753 38.4147C1.95153 37.7385 2.21931 37.1105 2.47086 36.5309C2.72241 35.9513 2.93744 35.4723 3.11596 35.0939C3.27825 34.7397 3.4446 34.4982 3.615 34.3694C3.79352 34.2325 4.01667 34.1641 4.28445 34.1641C4.536 34.1641 4.72669 34.2043 4.85652 34.2848C4.98635 34.3653 5.08372 34.4378 5.14864 34.5022C5.2947 34.7517 5.46916 35.0979 5.67202 35.5407C5.87489 35.9754 6.08992 36.4585 6.31712 36.9898C6.54433 37.5131 6.77153 38.0605 6.99874 38.6321C7.23406 39.2037 7.45315 39.7511 7.65601 40.2744C7.85888 40.7896 8.03739 41.2566 8.19157 41.6752C8.35386 42.0858 8.47558 42.3997 8.55672 42.6171H7.1448C7.10423 42.5285 7.05149 42.4038 6.98657 42.2427C6.92977 42.0737 6.86485 41.8926 6.79182 41.6993C6.71879 41.4981 6.6417 41.2928 6.56056 41.0835C6.47941 40.8661 6.40233 40.6608 6.3293 40.4676H2.13005C1.94342 40.9265 1.78113 41.3451 1.64318 41.7235C1.50524 42.1019 1.39569 42.3997 1.31455 42.6171H0ZM4.24793 35.3958C4.15867 35.581 4.04913 35.8184 3.91929 36.1083C3.79758 36.39 3.65963 36.708 3.50546 37.0622C3.3594 37.4084 3.20522 37.7787 3.04293 38.1732C2.88064 38.5677 2.72241 38.9622 2.56823 39.3566H5.89111C5.74505 38.9702 5.58682 38.5757 5.41642 38.1732C5.25413 37.7626 5.09589 37.3762 4.94172 37.0139C4.79566 36.6436 4.66177 36.3176 4.54005 36.0358C4.41834 35.746 4.32096 35.5326 4.24793 35.3958Z" fill="white"/>
</svg>
