<svg width="71" height="126" viewBox="0 0 71 126" fill="none" xmlns="http://www.w3.org/2000/svg">
<g clip-path="url(#clip0_321_6853)">
<path d="M9.31392 115.988C9.49212 116.001 9.63544 116.014 9.74388 116.027V117.338C9.64189 117.363 9.50046 117.384 9.31885 117.4C9.13723 117.416 8.97003 117.424 8.81723 117.424C8.44149 117.424 8.16622 117.366 7.99105 117.252C7.81588 117.137 7.7283 116.959 7.7283 116.716C7.7283 116.218 8.101 115.97 8.84604 115.97C8.97988 115.97 9.13572 115.976 9.31392 115.989V115.988ZM15.0103 98.4002C15.1059 98.2984 15.1536 98.1548 15.1536 97.9695C15.1536 97.6315 15.0372 97.3778 14.8048 97.2088C14.5724 97.0398 14.2968 96.9551 13.9787 96.9551C13.6791 96.9551 13.4183 97.0269 13.1953 97.1704C12.9724 97.314 12.7987 97.5054 12.6747 97.7447C12.5504 97.9839 12.4886 98.2536 12.4886 98.5532H14.5042C14.7461 98.5532 14.9148 98.5023 15.0103 98.4002ZM38.5001 115.261C38.5732 115.159 38.61 115.038 38.61 114.897C38.61 114.636 38.5145 114.429 38.3234 114.275C38.1323 114.122 37.8968 114.046 37.6166 114.046C37.2473 114.046 36.9512 114.175 36.7283 114.433C36.5053 114.691 36.3939 115.018 36.3939 115.414H38.1038C38.2949 115.414 38.4269 115.363 38.5004 115.261L38.5001 115.261ZM20.8099 105.492C20.5774 105.323 20.3018 105.238 19.9837 105.238C19.6842 105.238 19.4233 105.31 19.2004 105.453C18.9774 105.597 18.8038 105.788 18.6798 106.028C18.5554 106.267 18.4936 106.537 18.4936 106.836H20.5092C20.7511 106.836 20.9198 106.785 21.0154 106.683C21.1109 106.581 21.1587 106.438 21.1587 106.253C21.1587 105.915 21.0423 105.661 20.8099 105.492ZM28.6758 108.329C29.0898 108.329 29.4239 108.189 29.6787 107.908C29.9331 107.627 30.0608 107.261 30.0608 106.808C30.0608 106.355 29.9335 105.988 29.6787 105.708C29.4239 105.427 29.0895 105.287 28.6758 105.287C28.2621 105.287 27.9273 105.427 27.6729 105.708C27.4181 105.988 27.2907 106.355 27.2907 106.808C27.2907 107.26 27.4181 107.627 27.6729 107.908C27.9277 108.189 28.2618 108.329 28.6758 108.329ZM21.55 115.969C20.8049 115.969 20.4322 116.218 20.4322 116.715C20.4322 116.958 20.5198 117.136 20.695 117.251C20.8702 117.366 21.1454 117.423 21.5212 117.423C21.674 117.423 21.8412 117.415 22.0228 117.399C22.2044 117.384 22.3458 117.363 22.4478 117.337V116.026C22.3394 116.014 22.1961 116.001 22.0179 115.988C21.8397 115.975 21.6834 115.969 21.55 115.969V115.969ZM10.0684 106.683C10.164 106.581 10.2118 106.438 10.2118 106.253C10.2118 105.915 10.0954 105.661 9.86293 105.492C9.63051 105.323 9.35487 105.238 9.03676 105.238C8.73722 105.238 8.47637 105.31 8.25342 105.453C8.03048 105.597 7.85683 105.788 7.73285 106.028C7.60848 106.267 7.54668 106.537 7.54668 106.836H9.56226C9.80416 106.836 9.97289 106.785 10.0684 106.683ZM71 0V39.2409C69.3196 39.896 67.599 40.5701 65.8374 41.2636C60.8137 43.2419 55.7546 45.2722 50.661 47.3545C45.5675 49.4369 40.6999 51.4672 36.0564 53.4455C31.4144 55.4237 27.2729 57.2099 23.6346 58.8076C19.9966 60.4034 17.1734 61.6871 15.1627 62.6601C12.114 64.1177 9.949 65.7481 8.66594 67.5536C7.3844 69.3579 6.74287 71.6826 6.74287 74.5298C6.74287 78.3462 7.78252 81.4015 9.86142 83.6924C11.5244 84.6639 14.1591 85.9832 17.7615 87.6489C21.3657 89.315 25.6096 91.2052 30.495 93.3236C35.3804 95.4401 40.6298 97.6444 46.2431 99.9352C51.8561 102.226 57.5393 104.499 63.2907 106.755C65.9045 107.78 68.4726 108.77 71 109.731V126H0V0H71ZM11.0618 115.27C11.0618 114.563 10.8533 114.033 10.4362 113.682C10.0191 113.332 9.37724 113.156 8.51163 113.156C7.97664 113.156 7.56261 113.221 7.2699 113.352C6.97681 113.482 6.83046 113.672 6.83046 113.921C6.83046 114.042 6.86231 114.162 6.92601 114.28C6.9897 114.398 7.07236 114.486 7.17435 114.543C7.39729 114.39 7.61038 114.28 7.81436 114.213C8.01797 114.146 8.24736 114.112 8.50215 114.112C9.33629 114.112 9.75336 114.422 9.75336 115.041V115.194C9.67677 115.181 9.53041 115.168 9.31392 115.155C9.09742 115.143 8.89344 115.136 8.70272 115.136C7.90043 115.136 7.31767 115.261 6.95482 115.51C6.59197 115.758 6.41036 116.16 6.41036 116.715C6.41036 117.27 6.595 117.666 6.9643 117.921C7.3336 118.176 7.93228 118.303 8.75997 118.303C8.94462 118.303 9.15657 118.298 9.39506 118.289C9.63392 118.279 9.8709 118.265 10.1067 118.246C10.3422 118.227 10.5462 118.208 10.7179 118.189C10.8897 118.17 11.0046 118.15 11.0618 118.131V115.27ZM13.4497 111.233C13.2522 111.156 13.0391 111.118 12.8097 111.118C12.5803 111.118 12.4146 111.17 12.2941 111.271C12.1731 111.373 12.1125 111.514 12.1125 111.692V118.17H13.4497V111.233ZM15.857 111.233C15.6594 111.156 15.4464 111.118 15.217 111.118C14.9876 111.118 14.8219 111.17 14.7013 111.271C14.5804 111.373 14.5197 111.514 14.5197 111.692V118.17H15.857V111.233ZM18.3116 113.405C18.1141 113.328 17.901 113.29 17.6716 113.29C17.4422 113.29 17.2765 113.342 17.156 113.443C17.035 113.545 16.9743 113.686 16.9743 113.864V118.17H18.3116V113.405ZM18.3882 111.845C18.3882 111.641 18.3166 111.469 18.1732 111.329C18.0299 111.189 17.8532 111.118 17.6432 111.118C17.4331 111.118 17.2564 111.189 17.1131 111.329C16.9698 111.469 16.8981 111.641 16.8981 111.845C16.8981 112.049 16.9698 112.214 17.1131 112.357C17.2564 112.501 17.4331 112.572 17.6432 112.572C17.8532 112.572 18.0299 112.501 18.1732 112.357C18.3166 112.214 18.3882 112.043 18.3882 111.845ZM23.7661 115.27C23.7661 114.563 23.5576 114.033 23.1405 113.682C22.7235 113.332 22.0816 113.156 21.2159 113.156C20.681 113.156 20.2669 113.221 19.9742 113.352C19.6811 113.482 19.5348 113.672 19.5348 113.921C19.5348 114.042 19.5666 114.162 19.6303 114.28C19.694 114.398 19.7767 114.486 19.8787 114.543C20.1016 114.39 20.3147 114.28 20.5187 114.213C20.7223 114.146 20.9517 114.112 21.2065 114.112C22.0406 114.112 22.4577 114.422 22.4577 115.041V115.194C22.3811 115.181 22.2347 115.168 22.0182 115.155C21.8017 115.143 21.5977 115.136 21.407 115.136C20.6047 115.136 20.022 115.261 19.6591 115.51C19.2963 115.758 19.1147 116.16 19.1147 116.715C19.1147 117.27 19.2993 117.666 19.6686 117.921C20.0379 118.176 20.6366 118.303 21.4643 118.303C21.6489 118.303 21.8609 118.298 22.0994 118.289C22.3382 118.279 22.5752 118.265 22.811 118.246C23.0465 118.227 23.2505 118.208 23.4222 118.189C23.594 118.17 23.7089 118.15 23.7661 118.131V115.27ZM29.5259 115.156C29.5259 114.741 29.4269 114.382 29.2297 114.079C29.0322 113.776 28.755 113.542 28.3986 113.376C28.0419 113.21 27.6183 113.127 27.1281 113.127C26.8797 113.127 26.6075 113.148 26.3114 113.19C26.0153 113.231 25.7336 113.287 25.4659 113.357C25.1986 113.427 24.9817 113.504 24.8164 113.587V118.17H26.1537V114.419C26.2492 114.368 26.3861 114.325 26.5643 114.29C26.7425 114.255 26.9177 114.237 27.0898 114.237C27.472 114.237 27.7503 114.333 27.9255 114.525C28.1006 114.716 28.1882 115.016 28.1882 115.424V118.17H29.5255V115.156L29.5259 115.156ZM34.8177 117.748L34.2444 116.859C34.1807 116.922 34.0822 116.985 33.9483 117.045C33.8145 117.106 33.6681 117.157 33.5089 117.198C33.3496 117.24 33.1938 117.26 33.041 117.26C32.7927 117.26 32.5648 117.197 32.3581 117.069C32.1511 116.941 31.9869 116.763 31.8664 116.533C31.7454 116.303 31.6848 116.036 31.6848 115.73C31.6848 115.283 31.8152 114.918 32.0764 114.634C32.3377 114.35 32.6717 114.208 33.0793 114.208C33.3212 114.208 33.5582 114.259 33.791 114.361C34.0234 114.463 34.216 114.597 34.3688 114.763C34.4833 114.674 34.5788 114.562 34.6554 114.428C34.732 114.294 34.7699 114.167 34.7699 114.045C34.7699 113.828 34.6679 113.643 34.4643 113.49C34.3051 113.376 34.0822 113.286 33.7955 113.223C33.5089 113.159 33.2222 113.127 32.936 113.127C32.401 113.127 31.9377 113.239 31.546 113.462C31.1543 113.685 30.8533 113.993 30.6432 114.385C30.4332 114.777 30.3282 115.226 30.3282 115.73C30.3282 116.234 30.4347 116.691 30.6482 117.083C30.8616 117.476 31.1608 117.782 31.546 118.002C31.9312 118.222 32.3816 118.332 32.8977 118.332C33.2541 118.332 33.6044 118.279 33.9483 118.174C34.2922 118.069 34.5819 117.927 34.8177 117.748ZM40.3962 117.462C40.3962 117.698 40.4804 117.902 40.6495 118.074C40.8182 118.246 41.0237 118.332 41.2656 118.332C41.5075 118.332 41.713 118.246 41.8817 118.074C42.0505 117.902 42.135 117.698 42.135 117.462C42.135 117.226 42.0505 117.014 41.8817 116.845C41.713 116.676 41.5075 116.591 41.2656 116.591C41.0237 116.591 40.8182 116.676 40.6495 116.845C40.4808 117.014 40.3962 117.219 40.3962 117.462ZM37.6451 113.127C37.123 113.127 36.6676 113.237 36.279 113.457C35.8903 113.677 35.5897 113.985 35.3762 114.381C35.1627 114.776 35.0562 115.245 35.0562 115.787C35.0562 116.329 35.1677 116.763 35.3906 117.145C35.6136 117.528 35.9241 117.821 36.3218 118.026C36.7199 118.23 37.1829 118.332 37.7118 118.332C37.9473 118.332 38.1941 118.313 38.4519 118.274C38.7097 118.236 38.9422 118.19 39.1492 118.136C39.3558 118.082 39.501 118.026 39.5837 117.968L39.2208 117.021C39.1382 117.06 39.0168 117.096 38.858 117.131C38.6987 117.167 38.53 117.194 38.3518 117.213C38.1736 117.232 38.014 117.241 37.8741 117.241C37.46 117.241 37.1321 117.155 36.8902 116.983C36.6483 116.811 36.4951 116.585 36.4318 116.304H38.3423C38.8644 116.304 39.2496 116.194 39.498 115.974C39.7463 115.754 39.8707 115.433 39.8707 115.012C39.8707 114.623 39.7767 114.288 39.589 114.008C39.4009 113.727 39.1401 113.51 38.8057 113.357C38.4712 113.204 38.0845 113.127 37.6451 113.127ZM31.6465 105.133C31.6465 105.197 31.6575 105.267 31.6798 105.343C31.7022 105.42 31.745 105.519 31.8087 105.64C31.8406 105.704 31.9153 105.838 32.0332 106.042C32.1511 106.246 32.2895 106.486 32.4488 106.764C32.608 107.042 32.7737 107.327 32.9454 107.62C33.1172 107.914 33.2799 108.188 33.4327 108.443C33.5855 108.699 33.7098 108.903 33.8054 109.056L33.557 109.534C33.3659 109.904 33.1764 110.17 32.9887 110.333C32.8006 110.496 32.589 110.577 32.3536 110.577C32.2391 110.577 32.1162 110.56 31.9858 110.524C31.8554 110.489 31.7485 110.443 31.6658 110.386L31.3409 111.113C31.4429 111.183 31.6002 111.245 31.8137 111.299C32.0271 111.353 32.2353 111.381 32.4393 111.381C32.815 111.381 33.154 111.269 33.4566 111.046C33.7591 110.822 34.0568 110.459 34.3498 109.955C34.4962 109.693 34.6604 109.389 34.8416 109.041C35.0232 108.694 35.2079 108.327 35.3955 107.941C35.5832 107.555 35.7648 107.171 35.94 106.788C36.1152 106.405 36.2695 106.048 36.4033 105.716C36.5372 105.385 36.6388 105.104 36.7089 104.874C36.6642 104.817 36.5944 104.768 36.4989 104.726C36.4033 104.685 36.2983 104.664 36.1838 104.664C36.0564 104.664 35.9449 104.696 35.8494 104.76C35.7538 104.823 35.6712 104.938 35.601 105.104C35.4737 105.43 35.3303 105.777 35.1711 106.147C35.0118 106.517 34.8571 106.871 34.7078 107.209C34.558 107.547 34.426 107.834 34.3112 108.07C34.2092 107.891 34.0897 107.676 33.9529 107.424C33.816 107.172 33.6727 106.907 33.5229 106.63C33.3731 106.352 33.2317 106.084 33.0979 105.826C32.964 105.568 32.848 105.343 32.749 105.152C32.6501 104.96 32.5849 104.826 32.5534 104.75C32.5022 104.718 32.437 104.695 32.3578 104.683C32.2781 104.67 32.2065 104.664 32.1428 104.664C31.9835 104.664 31.8611 104.705 31.775 104.788C31.6889 104.871 31.6461 104.986 31.6461 105.133H31.6465ZM26.3068 106.807C26.3068 107.241 26.4104 107.632 26.6174 107.979C26.8244 108.327 27.1076 108.601 27.4674 108.802C27.8272 109.003 28.2329 109.104 28.6853 109.104C28.9973 109.104 29.2616 109.059 29.4781 108.97C29.8345 109.129 30.0131 109.388 30.0131 109.745C30.0131 110.038 29.8952 110.266 29.6597 110.429C29.4239 110.592 29.0898 110.673 28.6568 110.673C27.9819 110.673 27.3927 110.497 26.8896 110.146L26.479 110.883C26.6318 110.998 26.8308 111.1 27.0761 111.189C27.3211 111.279 27.5918 111.349 27.8879 111.4C28.184 111.451 28.4752 111.476 28.7619 111.476C29.4686 111.476 30.029 111.323 30.443 111.017C30.8567 110.711 31.0641 110.303 31.0641 109.792C31.0641 109.251 30.7998 108.832 30.2713 108.539C30.7934 108.093 31.0546 107.531 31.0546 106.855C31.0546 106.256 30.873 105.79 30.5101 105.458H31.3602C31.4429 105.357 31.4846 105.229 31.4846 105.076C31.4846 104.801 31.3348 104.664 31.0357 104.664H29.5551C29.2749 104.562 28.9852 104.511 28.6857 104.511C28.2333 104.511 27.8276 104.612 27.4678 104.813C27.108 105.014 26.8244 105.286 26.6178 105.631C26.4107 105.975 26.3072 106.368 26.3072 106.808L26.3068 106.807ZM23.0018 109.467H23.9857V105.602C24.1131 105.519 24.2704 105.453 24.4585 105.406C24.6461 105.358 24.8357 105.334 25.0268 105.334C25.2179 105.334 25.4105 105.356 25.6046 105.401C25.7988 105.445 25.9372 105.496 26.0202 105.554C26.071 105.503 26.1188 105.429 26.1635 105.334C26.2079 105.238 26.2303 105.152 26.2303 105.076C26.2303 104.903 26.1123 104.766 25.8769 104.664C25.641 104.562 25.3324 104.511 24.9502 104.511C24.5297 104.511 24.151 104.569 23.8135 104.683C23.4761 104.798 23.2054 104.935 23.0018 105.095V109.467V109.467ZM21.0965 104.741C20.7814 104.588 20.4137 104.511 19.9932 104.511C19.4836 104.511 19.0411 104.623 18.6654 104.846C18.2896 105.069 17.9981 105.379 17.7914 105.774C17.5844 106.17 17.4809 106.626 17.4809 107.143C17.4809 107.66 17.589 108.095 17.8058 108.468C18.0223 108.841 18.3215 109.126 18.7037 109.324C19.0859 109.522 19.5253 109.621 20.022 109.621C20.2514 109.621 20.4853 109.602 20.7242 109.563C20.963 109.525 21.1795 109.474 21.3737 109.41C21.5678 109.347 21.7157 109.28 21.8177 109.209L21.5121 108.492C21.3718 108.575 21.1697 108.645 20.9054 108.702C20.6411 108.76 20.3879 108.789 20.146 108.789C19.6811 108.789 19.3084 108.68 19.0282 108.463C18.748 108.246 18.5793 107.937 18.5221 107.535H20.7572C21.655 107.535 22.1039 107.14 22.1039 106.349C22.1039 105.979 22.0144 105.657 21.8366 105.382C21.658 105.108 21.4116 104.894 21.0965 104.741ZM18.1816 98.8502L16.2998 101.185H17.4176L18.7359 99.4818L20.1399 101.185H21.3339L19.3183 98.764L21.095 96.6494C21.0438 96.5727 20.9642 96.5092 20.8561 96.458C20.7477 96.4071 20.6301 96.3812 20.5028 96.3812C20.3943 96.3812 20.2908 96.4067 20.1922 96.458C20.0933 96.5092 19.9901 96.5985 19.8817 96.7257L18.7738 98.113L17.3599 96.4675C17.2962 96.442 17.2325 96.4211 17.1689 96.4052C17.1052 96.3892 17.0384 96.3812 16.9683 96.3812C16.8344 96.3812 16.7249 96.4196 16.6388 96.4959C16.5527 96.5723 16.5099 96.6744 16.5099 96.802C16.5099 96.9426 16.5925 97.1051 16.7582 97.2901L18.1816 98.8498V98.8502ZM16.2536 105.439C16.0591 105.146 15.7887 104.918 15.4418 104.755C15.0945 104.593 14.6918 104.512 14.2334 104.512C13.9976 104.512 13.7383 104.532 13.455 104.574C13.1714 104.615 12.9041 104.668 12.6527 104.732C12.401 104.796 12.2023 104.863 12.0556 104.933V109.468H13.049V105.564C13.1764 105.501 13.3451 105.448 13.5551 105.406C13.7652 105.365 13.9722 105.344 14.1762 105.344C15.0934 105.344 15.5518 105.819 15.5518 106.77V109.468H16.5451V106.493C16.5451 106.084 16.4481 105.733 16.254 105.44L16.2536 105.439ZM11.4759 98.8597C11.4759 99.3701 11.5839 99.8118 11.8008 100.185C12.0173 100.558 12.3164 100.843 12.6986 101.041C13.0808 101.239 13.5203 101.338 14.0169 101.338C14.2463 101.338 14.4803 101.319 14.7191 101.28C14.958 101.242 15.1745 101.191 15.3686 101.127C15.5628 101.064 15.7106 100.997 15.8126 100.926L15.507 100.209C15.3667 100.291 15.1646 100.362 14.9004 100.419C14.6361 100.476 14.3828 100.505 14.1409 100.505C13.6761 100.505 13.3034 100.397 13.0232 100.18C12.743 99.963 12.5743 99.6534 12.517 99.2516H14.7521C15.65 99.2516 16.0989 98.8563 16.0989 98.0652C16.0989 97.6953 16.0094 97.3732 15.8316 97.099C15.653 96.8248 15.4065 96.611 15.0915 96.458C14.7764 96.3049 14.4086 96.2282 13.9881 96.2282C13.4785 96.2282 13.0361 96.3399 12.6603 96.5632C12.2846 96.7865 11.993 97.096 11.7864 97.4913C11.5794 97.8871 11.4759 98.3428 11.4759 98.8597ZM6.85283 101.185H11.0846V100.285H7.88451V94.7265C7.73171 94.6498 7.56602 94.6118 7.38782 94.6118C7.22857 94.6118 7.09966 94.6532 7.00108 94.736C6.90212 94.8188 6.85321 94.9404 6.85321 95.0995V101.185H6.85283ZM6.53434 107.142C6.53434 107.653 6.6424 108.094 6.85928 108.467C7.07577 108.841 7.37492 109.126 7.75711 109.324C8.1393 109.521 8.57874 109.62 9.07543 109.62C9.30482 109.62 9.53876 109.601 9.77762 109.563C10.0165 109.525 10.233 109.474 10.4271 109.41C10.6212 109.346 10.7691 109.279 10.8711 109.209L10.5655 108.492C10.4252 108.574 10.2231 108.645 9.95886 108.702C9.69459 108.759 9.44131 108.788 9.19941 108.788C8.73457 108.788 8.36186 108.68 8.08167 108.463C7.80147 108.246 7.63275 107.936 7.5755 107.535H9.81061C10.7084 107.535 11.1574 107.139 11.1574 106.348C11.1574 105.978 11.0679 105.656 10.8901 105.382C10.7115 105.107 10.465 104.894 10.1496 104.741C9.8345 104.588 9.46672 104.511 9.04624 104.511C8.53665 104.511 8.09418 104.622 7.71844 104.846C7.3427 105.069 7.05113 105.379 6.84449 105.774C6.63747 106.17 6.53396 106.625 6.53396 107.142H6.53434ZM64.7455 91.0852C67.0428 91.9872 69.127 92.8086 70.9996 93.5496V54.4519C68.9776 55.2612 66.893 56.1229 64.7455 57.0378V91.0852ZM36.108 68.3348C33.2332 69.4802 30.5302 70.5554 28.0001 71.5625C25.4712 72.5678 23.3403 73.4189 21.6072 74.1135C24.5878 75.2931 27.9319 76.5947 31.6381 78.0181C35.3463 79.44 39.0024 80.8634 42.6048 82.2868C46.2086 83.7087 49.2931 84.9419 51.8561 85.9828V62.1394C49.709 62.9723 47.2661 63.9255 44.5278 65.003C41.7911 66.0781 38.9846 67.1894 36.108 68.3348Z" fill="white"/>
</g>
<defs>
<clipPath id="clip0_321_6853">
<rect width="71" height="126" fill="white"/>
</clipPath>
</defs>
</svg>
