<svg xmlns="http://www.w3.org/2000/svg" width="126" height="126" viewBox="0 0 126 126" fill="none">
<g clip-path="url(#clip0_498_14784)">
<path d="M126 0H0V126H126V0Z" fill="white"/>
<path d="M11.9408 71.8256C11.9408 71.543 12.0283 71.3283 12.2032 71.1816C12.3782 71.035 12.6069 70.9609 12.8895 70.9609C13.2058 70.9609 13.4998 71.0289 13.771 71.1641V81.0129H19.45V82.6062H11.9401V71.8249L11.9408 71.8256ZM24.6546 82.878C23.7731 82.878 22.9933 82.7024 22.315 82.3525C21.6368 82.0027 21.1059 81.4967 20.7217 80.8352C20.3375 80.1738 20.1451 79.3919 20.1451 78.4876C20.1451 77.5833 20.3287 76.7644 20.6961 76.0633C21.0635 75.3628 21.5803 74.8144 22.2471 74.4188C22.9139 74.0231 23.6991 73.8253 24.6035 73.8253C25.3497 73.8253 26.0017 73.9612 26.5615 74.2324C27.1206 74.5036 27.5587 74.8824 27.8749 75.3682C28.1912 75.854 28.3493 76.4253 28.3493 77.0806C28.3493 78.4822 27.5526 79.1827 25.9593 79.1827H21.9927C22.0943 79.8946 22.3938 80.4429 22.891 80.8272C23.3883 81.2114 24.049 81.4038 24.8746 81.4038C25.3039 81.4038 25.7534 81.3527 26.2224 81.2511C26.6914 81.1495 27.05 81.025 27.299 80.8783L27.8413 82.1493C27.6603 82.2738 27.3972 82.3922 27.0534 82.5053C26.7082 82.6183 26.3246 82.7085 25.9007 82.7764C25.4768 82.8444 25.0617 82.878 24.6546 82.878ZM26.6718 76.9111C26.6718 76.3122 26.4653 75.8628 26.0528 75.5633C25.6403 75.2639 25.1512 75.1139 24.5866 75.1139C24.0551 75.1139 23.5921 75.241 23.1965 75.4954C22.8008 75.7497 22.4927 76.0888 22.2727 76.5127C22.052 76.9367 21.9423 77.4144 21.9423 77.9453H25.5192C25.9485 77.9453 26.2479 77.8551 26.4175 77.6741C26.5871 77.4938 26.6718 77.2394 26.6718 76.9111ZM37.6402 82.6069H35.5214L33.0297 79.5898L30.6902 82.6069H28.7066L32.046 78.4708L29.5201 75.7073C29.226 75.3796 29.0793 75.0917 29.0793 74.8427C29.0793 74.6166 29.1554 74.4356 29.3081 74.3004C29.4609 74.1644 29.6553 74.0972 29.8928 74.0972C30.0173 74.0972 30.1357 74.1113 30.2488 74.1396C30.3618 74.1678 30.4749 74.2048 30.5879 74.2499L33.097 77.1654L35.0631 74.7075C35.2549 74.4814 35.4386 74.3232 35.6142 74.2331C35.7892 74.1429 35.9729 74.0972 36.1653 74.0972C36.3914 74.0972 36.6 74.1422 36.7924 74.2331C36.9842 74.3239 37.1255 74.4363 37.2163 74.5722L34.0633 78.3187L37.6402 82.6076V82.6069ZM15.8851 97.5532C15.0037 97.5532 14.2238 97.3776 13.5456 97.0277C12.8673 96.6778 12.3365 96.1718 11.9522 95.5104C11.568 94.849 11.3756 94.0671 11.3756 93.1628C11.3756 92.2585 11.5593 91.4396 11.9267 90.7385C12.2941 90.038 12.8108 89.4896 13.4776 89.094C14.1444 88.6983 14.9297 88.5005 15.834 88.5005C16.5802 88.5005 17.2322 88.6364 17.792 88.9076C18.3519 89.1788 18.7892 89.5576 19.1055 90.0434C19.4217 90.5292 19.5798 91.1005 19.5798 91.7558C19.5798 93.1574 18.7832 93.8579 17.1898 93.8579H13.2233C13.3249 94.5697 13.6243 95.1181 14.1216 95.5023C14.6188 95.8865 15.2796 96.079 16.1052 96.079C16.5345 96.079 16.9839 96.0278 17.4529 95.9262C17.9219 95.8246 18.2805 95.7002 18.5295 95.5535L19.0718 96.8245C18.8908 96.949 18.6277 97.0674 18.2839 97.1805C17.9387 97.2935 17.5552 97.3837 17.1313 97.4516C16.7074 97.5196 16.2922 97.5532 15.8851 97.5532ZM17.9024 91.5863C17.9024 90.9874 17.6958 90.5379 17.2834 90.2385C16.8709 89.9391 16.3817 89.789 15.8172 89.789C15.2856 89.789 14.8227 89.9162 14.427 90.1706C14.0314 90.4249 13.7232 90.764 13.5032 91.1879C13.2832 91.6118 13.1728 92.0896 13.1728 92.6205H16.7498C17.1791 92.6205 17.4785 92.5303 17.648 92.3493C17.8176 92.169 17.9024 91.9146 17.9024 91.5863ZM21.1739 89.2467C21.4336 89.1222 21.7868 89.0038 22.2336 88.8908C22.6797 88.7777 23.1548 88.6849 23.6574 88.6109C24.16 88.5375 24.6209 88.5005 25.0388 88.5005C25.8523 88.5005 26.5669 88.6445 27.1832 88.9325C27.7989 89.2205 28.2793 89.6249 28.6238 90.1443C28.9683 90.6644 29.1406 91.2862 29.1406 92.0088V97.2807H27.3777V92.5C27.3777 90.8165 26.5642 89.9741 24.9365 89.9741C24.5745 89.9741 24.2078 90.0111 23.8344 90.0844C23.4616 90.1578 23.1622 90.2513 22.9361 90.3643V97.2807H21.1732V89.2454L21.1739 89.2467ZM35.3114 97.5532C34.43 97.5532 33.6501 97.3776 32.9719 97.0277C32.2936 96.6778 31.7627 96.1718 31.3785 95.5104C30.9943 94.849 30.8019 94.0671 30.8019 93.1628C30.8019 92.2585 30.9856 91.4396 31.353 90.7385C31.7203 90.038 32.2371 89.4896 32.9039 89.094C33.5707 88.6983 34.356 88.5005 35.2603 88.5005C36.0065 88.5005 36.6585 88.6364 37.2183 88.9076C37.7781 89.1788 38.2155 89.5576 38.5318 90.0434C38.848 90.5292 39.0061 91.1005 39.0061 91.7558C39.0061 93.1574 38.2095 93.8579 36.6161 93.8579H32.6496C32.7512 94.5697 33.0506 95.1181 33.5478 95.5023C34.0451 95.8865 34.7058 96.079 35.5315 96.079C35.9607 96.079 36.4102 96.0278 36.8792 95.9262C37.3482 95.8246 37.7068 95.7002 37.9558 95.5535L38.4981 96.8245C38.3171 96.949 38.054 97.0674 37.7102 97.1805C37.365 97.2935 36.9815 97.3837 36.5576 97.4516C36.1337 97.5196 35.7185 97.5532 35.3114 97.5532ZM37.3287 91.5863C37.3287 90.9874 37.1221 90.5379 36.7096 90.2385C36.2972 89.9391 35.808 89.789 35.2435 89.789C34.7119 89.789 34.249 89.9162 33.8533 90.1706C33.4577 90.4249 33.1495 90.764 32.9295 91.1879C32.7095 91.6118 32.5991 92.0896 32.5991 92.6205H36.1761C36.6053 92.6205 36.9048 92.5303 37.0743 92.3493C37.2439 92.169 37.3287 91.9146 37.3287 91.5863ZM40.6001 89.5347C40.9615 89.2521 41.4419 89.0092 42.0407 88.806C42.6396 88.6028 43.3125 88.5012 44.058 88.5012C44.7362 88.5012 45.284 88.592 45.7025 88.7723C46.1203 88.9533 46.3296 89.1963 46.3296 89.5011C46.3296 89.637 46.2899 89.789 46.2112 89.9586C46.1318 90.1282 46.047 90.258 45.9568 90.3482C45.8101 90.2466 45.5639 90.1564 45.2194 90.077C44.8742 89.9983 44.533 89.9586 44.1939 89.9586C43.8548 89.9586 43.5184 90.001 43.1853 90.0858C42.8515 90.1706 42.5723 90.2863 42.3462 90.433V97.2814H40.6001V89.5347ZM50.8223 100.842C50.3136 100.842 49.7969 100.796 49.2714 100.706C48.7458 100.615 48.2654 100.491 47.8307 100.333C47.3954 100.175 47.0428 99.9937 46.771 99.7905L47.4997 98.4851C48.3926 99.1062 49.4375 99.4177 50.6359 99.4177C51.4043 99.4177 51.9978 99.2737 52.4156 98.9858C52.8335 98.6978 53.0428 98.2934 53.0428 97.7739C53.0428 97.1414 52.7265 96.6832 52.0933 96.4006C51.7091 96.5587 51.2402 96.6381 50.6864 96.6381C49.8837 96.6381 49.1637 96.4598 48.5251 96.1039C47.8866 95.7479 47.3833 95.2621 47.0166 94.6458C46.6492 94.0301 46.4655 93.3377 46.4655 92.5693C46.4655 91.8009 46.6492 91.0944 47.0166 90.4841C47.384 89.8738 47.8866 89.3907 48.5251 89.0348C49.1637 88.6788 49.8837 88.5005 50.6864 88.5005C51.2173 88.5005 51.7313 88.5913 52.2293 88.7717H54.8568C55.3877 88.7717 55.6535 89.0146 55.6535 89.5004C55.6535 89.7715 55.5795 89.9976 55.4328 90.1786H53.9242C54.5681 90.766 54.8904 91.5916 54.8904 92.6534C54.8904 93.8511 54.4268 94.8463 53.5003 95.6369C54.4383 96.157 54.9073 96.8972 54.9073 97.8574C54.9073 98.7617 54.5399 99.485 53.8051 100.027C53.0703 100.57 52.0759 100.841 50.8216 100.841L50.8223 100.842ZM53.1275 92.5693C53.1275 91.7673 52.9015 91.1173 52.4493 90.62C51.9971 90.1228 51.4037 89.8745 50.6696 89.8745C49.9355 89.8745 49.3413 90.1235 48.8898 90.62C48.4377 91.1173 48.2116 91.7673 48.2116 92.5693C48.2116 93.3714 48.4377 94.0214 48.8898 94.5186C49.342 95.0159 49.9348 95.2648 50.6696 95.2648C51.4043 95.2648 51.9971 95.0165 52.4493 94.5186C52.9008 94.0214 53.1275 93.372 53.1275 92.5693ZM62.5947 94.5778C62.261 95.2614 61.9333 95.9114 61.6117 96.5271C61.2894 97.1435 60.9987 97.6824 60.739 98.146C60.2189 99.0389 59.6907 99.6828 59.1537 100.078C58.6168 100.474 58.0152 100.672 57.3484 100.672C56.9864 100.672 56.6163 100.624 56.2382 100.528C55.8594 100.432 55.5801 100.321 55.3991 100.198L55.9758 98.909C56.1225 99.0107 56.3122 99.0927 56.5437 99.1546C56.7751 99.2166 56.9931 99.2482 57.1964 99.2482C57.6142 99.2482 57.9903 99.1042 58.3234 98.8162C58.6565 98.5282 58.9929 98.0559 59.332 97.4005L59.7728 96.5527C59.6032 96.2815 59.3832 95.9202 59.1113 95.468C58.8402 95.0159 58.5522 94.5301 58.2467 94.0099C57.9419 93.4905 57.6478 92.9845 57.3652 92.4926C57.0826 92.0007 56.837 91.5748 56.6278 91.2128C56.4185 90.8515 56.286 90.614 56.2294 90.5009C56.1164 90.2863 56.0404 90.1113 56.0007 89.9754C55.961 89.8395 55.9415 89.7157 55.9415 89.6027C55.9415 89.3429 56.0175 89.1397 56.1702 88.9924C56.323 88.8457 56.5403 88.7717 56.8229 88.7717C56.936 88.7717 57.0631 88.7831 57.2044 88.8053C57.3457 88.8282 57.4615 88.8679 57.5516 88.9237C57.6081 89.0597 57.7239 89.2965 57.8988 89.6356C58.0738 89.9748 58.2803 90.3731 58.5179 90.8306C58.7554 91.2882 59.0064 91.7632 59.2721 92.2544C59.5373 92.7463 59.7916 93.2153 60.0352 93.6614C60.2781 94.1082 60.49 94.4897 60.671 94.8059C60.8742 94.3881 61.1091 93.8794 61.3748 93.2805C61.64 92.6817 61.9145 92.0546 62.1971 91.3992C62.4797 90.7438 62.7334 90.1282 62.9601 89.5515C63.0846 89.2575 63.2313 89.0543 63.4008 88.9412C63.5704 88.8282 63.7676 88.7717 63.9943 88.7717C64.1975 88.7717 64.3839 88.8087 64.5535 88.882C64.723 88.9554 64.8468 89.0428 64.9262 89.1444C64.8017 89.5515 64.6214 90.0488 64.3839 90.6362C64.1464 91.2243 63.8725 91.8568 63.5617 92.535C63.2508 93.2133 62.9285 93.8942 62.5954 94.5778H62.5947ZM19.411 112.632C19.3094 112.666 19.1061 112.7 18.8007 112.734C18.4952 112.767 18.1339 112.802 17.716 112.835C17.2975 112.869 16.8769 112.895 16.453 112.911C16.0291 112.928 15.6537 112.937 15.326 112.937C13.8565 112.937 12.7947 112.711 12.1393 112.259C11.4839 111.807 11.1562 111.095 11.1562 110.123C11.1562 109.151 11.4786 108.428 12.1225 107.987C12.7664 107.547 13.8006 107.326 15.2244 107.326C15.5635 107.326 15.9248 107.337 16.309 107.36C16.6933 107.382 16.953 107.405 17.0889 107.428V107.156C17.0889 106.06 16.3487 105.512 14.8684 105.512C14.4163 105.512 14.0092 105.571 13.6479 105.69C13.2859 105.809 12.9077 106.004 12.5121 106.275C12.3311 106.173 12.1844 106.018 12.0713 105.809C11.9583 105.599 11.9018 105.387 11.9018 105.173C11.9018 104.732 12.1615 104.396 12.6816 104.164C13.2011 103.933 13.9359 103.817 14.8853 103.817C16.4221 103.817 17.5606 104.128 18.3007 104.75C19.0409 105.371 19.411 106.309 19.411 107.563V112.632ZM16.3171 111.335C16.6394 111.307 16.8904 111.27 17.0714 111.224V108.902C16.879 108.88 16.6246 108.857 16.3084 108.834C15.9921 108.812 15.7149 108.8 15.4781 108.8C14.1559 108.8 13.4945 109.241 13.4945 110.122C13.4945 110.552 13.6499 110.869 13.9608 111.072C14.2716 111.275 14.7601 111.377 15.4269 111.377C15.6981 111.377 15.9948 111.362 16.3171 111.334V111.335ZM23.6487 112.7H21.2755V101.224C21.2755 100.907 21.3825 100.659 21.5978 100.478C21.8124 100.298 22.1172 100.207 22.5129 100.207C22.9085 100.207 23.2981 100.275 23.6487 100.41V112.7ZM27.92 112.7H25.5468V101.224C25.5468 100.907 25.6538 100.659 25.8691 100.478C26.0838 100.298 26.3886 100.207 26.7842 100.207C27.1799 100.207 27.5694 100.275 27.92 100.41V112.7ZM30.1492 102.402C29.8949 102.148 29.7677 101.845 29.7677 101.495C29.7677 101.144 29.8949 100.828 30.1492 100.58C30.4035 100.331 30.7171 100.207 31.0899 100.207C31.4626 100.207 31.7762 100.331 32.0305 100.58C32.2849 100.829 32.4121 101.134 32.4121 101.495C32.4121 101.856 32.2849 102.148 32.0305 102.402C31.7762 102.656 31.4626 102.783 31.0899 102.783C30.7171 102.783 30.4035 102.656 30.1492 102.402ZM32.2768 112.7H29.9036V105.072C29.9036 104.756 30.0106 104.507 30.2259 104.326C30.4406 104.145 30.7454 104.054 31.141 104.054C31.5367 104.054 31.9262 104.122 32.2768 104.258V112.699V112.7ZM41.956 112.632C41.8544 112.666 41.6512 112.7 41.3457 112.734C41.0402 112.767 40.6789 112.802 40.261 112.835C39.8425 112.869 39.422 112.895 38.9981 112.911C38.5741 112.928 38.1987 112.937 37.871 112.937C36.4015 112.937 35.3397 112.711 34.6843 112.259C34.0289 111.807 33.7013 111.095 33.7013 110.123C33.7013 109.151 34.0236 108.428 34.6675 107.987C35.3114 107.547 36.3456 107.326 37.7694 107.326C38.1085 107.326 38.4699 107.337 38.8541 107.36C39.2383 107.382 39.498 107.405 39.6339 107.428V107.156C39.6339 106.06 38.8938 105.512 37.4135 105.512C36.9613 105.512 36.5542 105.571 36.1929 105.69C35.8309 105.809 35.4527 106.004 35.0571 106.275C34.8761 106.173 34.7294 106.018 34.6164 105.809C34.5033 105.599 34.4468 105.387 34.4468 105.173C34.4468 104.732 34.7065 104.396 35.2266 104.164C35.7461 103.933 36.4809 103.817 37.4303 103.817C38.9671 103.817 40.1056 104.128 40.8457 104.75C41.5859 105.371 41.956 106.309 41.956 107.563V112.632ZM38.8621 111.335C39.1844 111.307 39.4354 111.27 39.6164 111.224V108.902C39.424 108.88 39.1696 108.857 38.8534 108.834C38.5371 108.812 38.2599 108.8 38.0231 108.8C36.7009 108.8 36.0395 109.241 36.0395 110.122C36.0395 110.552 36.1949 110.869 36.5058 111.072C36.8166 111.275 37.3051 111.377 37.9719 111.377C38.2431 111.377 38.5398 111.362 38.8621 111.334V111.335ZM43.8205 104.58C44.1145 104.433 44.4987 104.297 44.9731 104.173C45.4475 104.048 45.9481 103.95 46.4736 103.876C46.9991 103.803 47.4822 103.766 47.9229 103.766C48.7929 103.766 49.5445 103.912 50.1777 104.207C50.8102 104.501 51.3021 104.916 51.6526 105.453C52.0025 105.99 52.1781 106.625 52.1781 107.36V112.699H49.8049V107.834C49.8049 107.111 49.6495 106.58 49.3386 106.241C49.0278 105.901 48.5332 105.732 47.8556 105.732C47.5508 105.732 47.2393 105.763 46.9231 105.825C46.6068 105.888 46.3639 105.964 46.1943 106.054V112.699H43.8211V104.579L43.8205 104.58ZM54.1691 110.776C53.7903 110.081 53.6012 109.281 53.6012 108.377C53.6012 107.473 53.7876 106.69 54.1604 105.995C54.5332 105.3 55.0674 104.755 55.7625 104.359C56.4575 103.964 57.2798 103.766 58.2292 103.766C58.7379 103.766 59.2466 103.822 59.7546 103.935C60.2633 104.048 60.6589 104.207 60.9415 104.41C61.3028 104.681 61.4838 105.009 61.4838 105.393C61.4838 105.607 61.4159 105.834 61.2806 106.071C61.1447 106.309 60.9758 106.506 60.772 106.664C60.5008 106.37 60.159 106.134 59.7465 105.953C59.334 105.772 58.9128 105.681 58.4835 105.681C57.7602 105.681 57.1667 105.933 56.7038 106.436C56.2402 106.939 56.0088 107.586 56.0088 108.377C56.0088 108.919 56.1157 109.394 56.3311 109.801C56.5457 110.208 56.8364 110.524 57.2038 110.75C57.5711 110.976 57.9749 111.089 58.4156 111.089C58.6867 111.089 58.9633 111.053 59.2459 110.979C59.5285 110.906 59.7882 110.815 60.0258 110.708C60.2633 110.601 60.4382 110.49 60.5513 110.377L61.5686 111.954C61.1501 112.27 60.636 112.522 60.0258 112.708C59.4155 112.895 58.7937 112.988 58.1612 112.988C57.2461 112.988 56.4461 112.793 55.7625 112.403C55.0788 112.014 54.5473 111.471 54.1691 110.776ZM66.7053 112.988C65.7673 112.988 64.9451 112.807 64.2386 112.446C63.5321 112.084 62.981 111.564 62.586 110.886C62.1904 110.208 61.9925 109.406 61.9925 108.479C61.9925 107.553 62.1816 106.688 62.5604 105.988C62.9393 105.287 63.4728 104.741 64.1625 104.352C64.8515 103.962 65.6596 103.767 66.5869 103.767C67.3667 103.767 68.053 103.903 68.6465 104.174C69.24 104.445 69.7029 104.83 70.0366 105.327C70.3697 105.824 70.5366 106.418 70.5366 107.107C70.5366 107.853 70.3159 108.42 69.8751 108.81C69.4344 109.2 68.7501 109.395 67.8243 109.395H64.4337C64.5467 109.892 64.8179 110.293 65.2472 110.599C65.6765 110.904 66.2585 111.056 66.9933 111.056C67.2416 111.056 67.5242 111.039 67.8411 111.005C68.1573 110.972 68.4567 110.923 68.7394 110.861C69.022 110.799 69.2366 110.734 69.3833 110.666L70.0272 112.344C69.8799 112.446 69.6228 112.545 69.2561 112.641C68.8887 112.737 68.4763 112.819 68.0187 112.886C67.5612 112.954 67.1231 112.988 66.7053 112.988ZM64.9592 106.08C64.5635 106.537 64.3657 107.117 64.3657 107.817H67.4003C67.7395 107.817 67.9736 107.727 68.1042 107.546C68.234 107.366 68.2993 107.15 68.2993 106.902C68.2993 106.439 68.1297 106.072 67.7906 105.8C67.4515 105.529 67.0336 105.393 66.5364 105.393C65.881 105.393 65.3555 105.622 64.9599 106.079L64.9592 106.08ZM71.918 112.531C71.6185 112.226 71.4685 111.864 71.4685 111.446C71.4685 111.028 71.6179 110.652 71.918 110.352C72.2174 110.053 72.5821 109.903 73.0114 109.903C73.4407 109.903 73.8053 110.053 74.1048 110.352C74.4042 110.652 74.5542 111.017 74.5542 111.446C74.5542 111.875 74.4042 112.226 74.1048 112.531C73.8053 112.835 73.4407 112.988 73.0114 112.988C72.5821 112.988 72.2174 112.835 71.918 112.531Z" fill="#333333"/>
<path d="M126 0.106313V0H55.967C50.6708 2.27025 45.9319 4.32316 41.6181 6.21391C35.1768 9.03456 30.1094 11.3358 26.5601 13.0502C21.0507 15.6798 17.0673 18.6841 14.721 21.9805C12.3572 25.3031 11.1582 29.6195 11.1582 34.8093C11.1582 41.7486 13.0907 47.3926 16.9018 51.5859L17.0929 51.7406C20.0528 53.4658 24.7925 55.8357 31.182 58.7855C37.5015 61.7017 45.1103 65.0882 53.797 68.8475C62.4487 72.5893 71.8567 76.5323 81.7606 80.5675C91.6093 84.5798 101.791 88.6473 112.024 92.6548C116.752 94.5052 121.42 96.3038 126 98.0398V67.637C122.894 66.4104 119.464 65.0606 115.709 63.5884V4.35276C119.204 2.86977 122.651 1.44801 126 0.106313ZM91.2184 53.9025C86.8508 52.1356 81.7067 50.0867 75.9053 47.8003C69.5144 45.2798 62.9641 42.7343 56.436 40.2346C50.6076 38 45.2691 35.9283 40.5341 34.0665C43.229 32.9899 46.3807 31.735 49.9879 30.3031L64.3771 24.5845C69.4808 22.5551 74.46 20.587 79.3161 18.6821C83.7126 16.9548 87.6804 15.4079 91.2177 14.0366V53.9019L91.2184 53.9025Z" fill="#333333"/>
</g>
<defs>
<clipPath id="clip0_498_14784">
<rect width="126" height="126" fill="white"/>
</clipPath>
</defs>
</svg>