<svg xmlns="http://www.w3.org/2000/svg" width="22" height="21" viewBox="0 0 22 21" fill="none">
  <path d="M21.5241 16.4472L13.3257 2.20935C13.0882 1.80323 12.7486 1.46637 12.3405 1.23227C11.9325 0.998176 11.4702 0.875 10.9998 0.875C10.5293 0.875 10.0671 0.998176 9.65901 1.23227C9.25095 1.46637 8.91129 1.80323 8.67383 2.20935L0.475391 16.4472C0.244973 16.8413 0.123535 17.2896 0.123535 17.7461C0.123535 18.2026 0.244973 18.6509 0.475391 19.045C0.710225 19.4531 1.04941 19.7914 1.45816 20.0252C1.8669 20.259 2.33048 20.3798 2.80133 20.3753H19.1982C19.6687 20.3795 20.1319 20.2585 20.5403 20.0247C20.9487 19.791 21.2876 19.4528 21.5223 19.045C21.753 18.651 21.8747 18.2028 21.8751 17.7463C21.8754 17.2898 21.7543 16.8414 21.5241 16.4472ZM19.5741 17.919C19.536 17.984 19.481 18.0375 19.415 18.0738C19.349 18.1101 19.2744 18.1279 19.1991 18.1253H2.80133C2.72604 18.1279 2.65145 18.1101 2.58544 18.0738C2.51943 18.0375 2.46446 17.984 2.42633 17.919C2.39399 17.8664 2.37687 17.8059 2.37687 17.7442C2.37687 17.6825 2.39399 17.6219 2.42633 17.5693L10.6248 3.33154C10.6654 3.26905 10.7209 3.21769 10.7864 3.18214C10.8519 3.14659 10.9253 3.12797 10.9998 3.12797C11.0743 3.12797 11.1476 3.14659 11.2131 3.18214C11.2786 3.21769 11.3342 3.26905 11.3748 3.33154L19.5723 17.5693C19.6049 17.6218 19.6223 17.6822 19.6227 17.7439C19.623 17.8057 19.6062 17.8663 19.5741 17.919ZM9.87477 11.7503V8.75029C9.87477 8.45192 9.99329 8.16577 10.2043 7.95479C10.4152 7.74381 10.7014 7.62529 10.9998 7.62529C11.2981 7.62529 11.5843 7.74381 11.7953 7.95479C12.0062 8.16577 12.1248 8.45192 12.1248 8.75029V11.7503C12.1248 12.0487 12.0062 12.3348 11.7953 12.5458C11.5843 12.7568 11.2981 12.8753 10.9998 12.8753C10.7014 12.8753 10.4152 12.7568 10.2043 12.5458C9.99329 12.3348 9.87477 12.0487 9.87477 11.7503ZM12.4998 15.5003C12.4998 15.797 12.4118 16.087 12.247 16.3336C12.0821 16.5803 11.8479 16.7726 11.5738 16.8861C11.2997 16.9996 10.9981 17.0293 10.7071 16.9715C10.4162 16.9136 10.1489 16.7707 9.93911 16.5609C9.72933 16.3512 9.58647 16.0839 9.52859 15.7929C9.47071 15.5019 9.50042 15.2003 9.61395 14.9263C9.72748 14.6522 9.91974 14.4179 10.1664 14.2531C10.4131 14.0883 10.7031 14.0003 10.9998 14.0003C11.3976 14.0003 11.7791 14.1583 12.0604 14.4396C12.3417 14.7209 12.4998 15.1025 12.4998 15.5003Z" fill="#D32F2F"/>
</svg>