<svg width="24" height="24" viewBox="0 0 24 24" fill="none" xmlns="http://www.w3.org/2000/svg">
<path d="M15.4189 18.3387C15.4927 18.4518 15.5346 18.5828 15.5401 18.7178C15.5456 18.8528 15.5145 18.9868 15.4502 19.1056C15.3858 19.2244 15.2906 19.3236 15.1745 19.3927C15.0585 19.4619 14.9259 19.4984 14.7908 19.4984H0.958893C0.823795 19.4984 0.69121 19.4619 0.575146 19.3927C0.459082 19.3236 0.363848 19.2244 0.299506 19.1056C0.235165 18.9868 0.204104 18.8528 0.209607 18.7178C0.21511 18.5828 0.256971 18.4518 0.330768 18.3387C1.38649 16.7137 2.93935 15.4735 4.75764 14.8034C3.75245 14.1342 2.9893 13.1593 2.58105 12.0228C2.17279 10.8863 2.1411 9.64865 2.49067 8.49278C2.84023 7.33691 3.55249 6.32422 4.52212 5.60447C5.49174 4.88471 6.66726 4.49609 7.87483 4.49609C9.0824 4.49609 10.2579 4.88471 11.2275 5.60447C12.1972 6.32422 12.9094 7.33691 13.259 8.49278C13.6086 9.64865 13.5769 10.8863 13.1686 12.0228C12.7604 13.1593 11.9972 14.1342 10.992 14.8034C12.8103 15.4735 14.3632 16.7137 15.4189 18.3387ZM23.6605 18.3246C22.6044 16.7064 21.0551 15.4717 19.242 14.8034C20.4287 14.004 21.2662 12.7825 21.5839 11.3874C21.9017 9.9924 21.676 8.52867 20.9526 7.29421C20.2292 6.05975 19.0626 5.14735 17.6902 4.74272C16.3178 4.33808 14.8428 4.47163 13.5655 5.11619C13.5166 5.14141 13.4739 5.17706 13.4404 5.22062C13.4068 5.26417 13.3833 5.31457 13.3714 5.36824C13.3595 5.42191 13.3595 5.47754 13.3715 5.53119C13.3835 5.58483 13.4072 5.63519 13.4408 5.67869C14.3906 6.86351 14.9361 8.32135 14.9973 9.83867C15.0586 11.356 14.6324 12.853 13.7811 14.1106C13.7261 14.1927 13.7057 14.2933 13.7245 14.3904C13.7433 14.4875 13.7997 14.5733 13.8814 14.629C14.9913 15.4036 15.9414 16.385 16.6798 17.5193C16.9776 17.9754 17.0993 18.5242 17.022 19.0634C17.0133 19.117 17.0164 19.1719 17.031 19.2242C17.0456 19.2766 17.0714 19.3251 17.1066 19.3665C17.1419 19.4078 17.1857 19.4411 17.235 19.4638C17.2843 19.4866 17.338 19.4984 17.3923 19.4984H23.0455C23.2106 19.4984 23.3712 19.444 23.5022 19.3434C23.6332 19.2429 23.7274 19.102 23.7701 18.9424C23.7962 18.8375 23.7999 18.7283 23.781 18.6219C23.7621 18.5154 23.7211 18.4141 23.6605 18.3246Z" fill="white"/>
</svg>
